<svg width="209" height="55" viewBox="0 0 209 55" fill="none" xmlns="http://www.w3.org/2000/svg">
<line x1="50.6055" y1="55" x2="50.6055" y2="8.13891e-09" stroke="#181B16" stroke-opacity="0.5"/>
<line x1="124.922" y1="55" x2="124.922" y2="8.13891e-09" stroke="#181B16" stroke-opacity="0.5"/>
<line x1="143.461" y1="51.1953" x2="143.461" y2="4.15128" stroke="#181B16" stroke-opacity="0.5"/>
<line x1="55.2227" y1="55" x2="55.2226" y2="8.13891e-09" stroke="#181B16" stroke-opacity="0.5"/>
<line x1="129.527" y1="55" x2="129.527" y2="8.13891e-09" stroke="#181B16" stroke-opacity="0.5"/>
<line x1="148.121" y1="51.1953" x2="148.121" y2="4.15128" stroke="#181B16" stroke-opacity="0.5"/>
<line x1="59.8789" y1="40.4717" x2="59.8789" y2="14.5283" stroke="#181B16" stroke-opacity="0.5"/>
<line x1="134.191" y1="40.4717" x2="134.191" y2="14.5283" stroke="#181B16" stroke-opacity="0.5"/>
<line x1="185.297" y1="40.4717" x2="185.297" y2="14.5283" stroke="#181B16" stroke-opacity="0.5"/>
<line y1="-0.5" x2="28.7107" y2="-0.5" transform="matrix(1.11569e-07 -1 -1 -1.71256e-08 23.2031 41.8555)" stroke="#181B16" stroke-opacity="0.5"/>
<line x1="110.988" y1="40.4717" x2="110.988" y2="14.5283" stroke="#181B16" stroke-opacity="0.5"/>
<line x1="171.32" y1="40.4717" x2="171.32" y2="14.5283" stroke="#181B16" stroke-opacity="0.5"/>
<line y1="-0.5" x2="28.7107" y2="-0.5" transform="matrix(1.11569e-07 -1 -1 -1.71256e-08 37.1797 41.8555)" stroke="#181B16" stroke-opacity="0.5"/>
<line x1="64.5391" y1="43.585" x2="64.5391" y2="11.4151" stroke="#181B16" stroke-opacity="0.5"/>
<line x1="115.609" y1="43.585" x2="115.609" y2="11.4151" stroke="#181B16" stroke-opacity="0.5"/>
<line x1="175.984" y1="43.585" x2="175.984" y2="11.4151" stroke="#181B16" stroke-opacity="0.5"/>
<line y1="-0.5" x2="35.6289" y2="-0.5" transform="matrix(1.1738e-07 -1 -1 -1.62778e-08 32.5156 45.3145)" stroke="#181B16" stroke-opacity="0.5"/>
<line x1="69.1562" y1="41.1641" x2="69.1562" y2="13.837" stroke="#181B16" stroke-opacity="0.5"/>
<line x1="120.254" y1="41.1641" x2="120.254" y2="13.837" stroke="#181B16" stroke-opacity="0.5"/>
<line x1="180.641" y1="41.1641" x2="180.641" y2="13.837" stroke="#181B16" stroke-opacity="0.5"/>
<line y1="-0.5" x2="30.0943" y2="-0.5" transform="matrix(1.09402e-07 -1 -1 -1.74648e-08 27.8594 42.5469)" stroke="#181B16" stroke-opacity="0.5"/>
<line x1="208.5" y1="36.3203" x2="208.5" y2="19.0247" stroke="#181B16" stroke-opacity="0.5"/>
<line y1="-0.5" x2="19.3711" y2="-0.5" transform="matrix(1.63865e-07 -1 -1 -1.16601e-08 0 37.3584)" stroke="#181B16" stroke-opacity="0.5"/>
<line x1="73.8086" y1="44.623" x2="73.8086" y2="10.3778" stroke="#181B16" stroke-opacity="0.5"/>
<line x1="78.4727" y1="52.5781" x2="78.4726" y2="2.7668" stroke="#181B16" stroke-opacity="0.5"/>
<line x1="83.0781" y1="53.2705" x2="83.0781" y2="2.07553" stroke="#181B16" stroke-opacity="0.5"/>
<line x1="87.7461" y1="53.9629" x2="87.7461" y2="1.03836" stroke="#181B16" stroke-opacity="0.5"/>
<line x1="45.9531" y1="47.7363" x2="45.9531" y2="7.61054" stroke="#181B16" stroke-opacity="0.5"/>
<line x1="92.3906" y1="54.6543" x2="92.3906" y2="0.346123" stroke="#181B16" stroke-opacity="0.5"/>
<line x1="152.777" y1="54.6543" x2="152.777" y2="0.346123" stroke="#181B16" stroke-opacity="0.5"/>
<line x1="97.0117" y1="52.9248" x2="97.0117" y2="2.42166" stroke="#181B16" stroke-opacity="0.5"/>
<line x1="157.395" y1="52.9248" x2="157.395" y2="2.42166" stroke="#181B16" stroke-opacity="0.5"/>
<line x1="101.676" y1="46.0059" x2="101.676" y2="9.3392" stroke="#181B16" stroke-opacity="0.5"/>
<line x1="162.047" y1="46.0059" x2="162.047" y2="9.3392" stroke="#181B16" stroke-opacity="0.5"/>
<line x1="106.324" y1="44.2773" x2="106.324" y2="11.0698" stroke="#181B16" stroke-opacity="0.5"/>
<line x1="166.707" y1="44.2773" x2="166.707" y2="11.0698" stroke="#181B16" stroke-opacity="0.5"/>
<line y1="-0.5" x2="36.6667" y2="-0.5" transform="matrix(1.1738e-07 -1 -1 -1.62778e-08 41.793 46.0059)" stroke="#181B16" stroke-opacity="0.5"/>
<line x1="138.844" y1="39.4336" x2="138.844" y2="15.9116" stroke="#181B16" stroke-opacity="0.5"/>
<line x1="189.918" y1="35.2832" x2="189.918" y2="20.0631" stroke="#181B16" stroke-opacity="0.5"/>
<line y1="-0.5" x2="16.6038" y2="-0.5" transform="matrix(0 -1 -1 0 18.582 35.9746)" stroke="#181B16" stroke-opacity="0.5"/>
<line x1="194.566" y1="35.2832" x2="194.566" y2="20.0631" stroke="#181B16" stroke-opacity="0.5"/>
<line y1="-0.5" x2="16.6038" y2="-0.5" transform="matrix(0 -1 -1 0 13.9336 35.9746)" stroke="#181B16" stroke-opacity="0.5"/>
<line x1="199.223" y1="38.0508" x2="199.223" y2="16.9502" stroke="#181B16" stroke-opacity="0.5"/>
<line y1="-0.5" x2="23.1761" y2="-0.5" transform="matrix(0 -1 -1 0 9.27734 39.0879)" stroke="#181B16" stroke-opacity="0.5"/>
<line x1="203.844" y1="37.0127" x2="203.844" y2="17.9875" stroke="#181B16" stroke-opacity="0.5"/>
<line y1="-0.5" x2="21.1006" y2="-0.5" transform="matrix(0 -1 -1 0 4.65625 38.0508)" stroke="#181B16" stroke-opacity="0.5"/>
</svg>
