<svg width="11" height="11" viewBox="0 0 11 11" fill="none" xmlns="http://www.w3.org/2000/svg">
<path fill-rule="evenodd" clip-rule="evenodd" d="M6.133 0.470939C6.75918 -0.156194 7.77532 -0.157113 8.40156 0.468986L9.85566 1.92309C10.4762 2.54392 10.4824 3.54974 9.86933 4.17895L4.48359 9.70434C4.07169 10.1268 3.50679 10.3645 2.91718 10.3645H1.31171C0.566043 10.3644 -0.0299435 9.74383 0.00116478 8.99828L0.0705007 7.35961C0.093549 6.81166 0.321753 6.2917 0.709173 5.90356L6.133 0.470939ZM10.218 10.3235H6.64667V9.44848H10.218V10.3235ZM1.32734 6.52172C1.09495 6.75459 0.959327 7.06703 0.945501 7.39574L0.876165 9.03344C0.865708 9.28203 1.06408 9.48948 1.31269 9.48949H2.91816C3.27184 9.48947 3.61051 9.34642 3.85761 9.09301L7.66718 5.18383L5.16327 2.67992L1.32734 6.52172ZM7.78339 1.0891C7.49886 0.804575 7.03682 0.804386 6.75214 1.0891L5.78144 2.06078L8.27851 4.55785L9.24335 3.5686C9.52214 3.28256 9.51873 2.82445 9.23652 2.54223L7.78339 1.0891Z" fill="#52524F"/>
</svg>
