<svg width="157" height="35" viewBox="0 0 157 35" fill="none" xmlns="http://www.w3.org/2000/svg">
<path d="M66.3761 1.25577C66.1454 1.71222 65.8883 2.23509 65.6008 2.8387C64.2231 5.72412 63.3191 7.87547 61.9687 10.4551C63.35 10.2313 64.8459 9.81343 66.2696 9.70389C68.1591 9.57236 70.8282 9.19712 72.074 9.03457C73.3136 8.8784 73.635 8.82645 74.7095 8.31414C75.3371 8.00849 76.2173 7.76111 77.0369 7.62844C77.4335 7.54863 77.4948 7.74589 77.1479 8.04133C76.6591 8.44241 76.1519 8.54176 75.9533 8.87642C75.5406 9.54395 75.3371 9.81215 74.5003 9.80782C73.6684 9.79774 73.4989 10.5037 73.0399 10.5698C72.5707 10.6302 72.4879 10.3018 70.314 11.1775C68.1309 12.0362 66.8778 12.3547 66.0228 12.5969C65.1628 12.8402 63.2861 12.8487 61.8679 13.1499C61.4877 13.2321 60.9971 13.3092 60.4595 13.3773C60.417 13.3828 60.3741 13.3877 60.331 13.3931C60.1373 13.7202 59.9346 14.0572 59.7207 14.405C59.3992 14.9276 59.1152 15.4114 58.8585 15.867L58.8435 15.8927C56.7827 19.462 56.1948 21.2407 53.3139 27.1689C51.9564 30.2414 52.5404 32.0639 54.0188 32.3331C53.9745 32.3036 54.0215 32.3079 54.0888 32.2953C54.1515 32.2847 54.2603 32.2666 54.3653 32.2402C54.5576 32.1911 54.8257 32.1071 55.0603 32.0157C55.5761 31.8214 56.0914 31.5804 56.6881 31.2896C57.8691 30.708 59.2343 29.981 61.0777 28.9916C62.0719 28.4553 63.105 27.8864 64.1487 27.2932C64.1104 25.6212 64.4746 23.9265 65.2981 22.5478C67.1046 18.9571 70.5901 16.7123 73.1817 16.4976C74.2066 16.3783 75.093 16.5178 75.7968 16.749C76.3116 16.9256 76.7751 17.1489 77.2264 17.6674C77.669 18.165 77.8433 18.9293 77.7909 19.4116C77.6773 20.4124 77.3173 20.8177 76.9934 21.2699C76.3355 22.0769 75.6174 22.6661 74.4093 23.6201C71.8809 25.5205 70.1807 27.5664 67.2609 29.4576C67.4088 29.8412 67.6034 30.217 67.8494 30.5813C68.0786 30.9182 68.3543 31.2404 68.6817 31.5475C70.1339 33.0962 73.6697 31.7497 76.3571 29.9719C79.1523 28.1679 81.7767 25.8661 84.1791 23.6277C85.1339 22.7336 86.1339 21.738 87.1024 20.6649C87.2552 20.4956 87.4091 20.321 87.5625 20.1439C87.4162 19.5937 87.417 19.027 87.5232 18.5751C87.6494 17.9988 87.8681 17.4336 88.4105 16.9173C88.908 16.3632 90.1327 16.1803 90.7735 16.5702C91.0998 16.7204 91.3776 17.0743 91.464 17.3703C91.516 17.5367 91.5214 17.6087 91.5315 17.6971C91.5395 17.7817 91.54 17.8589 91.5366 17.9303C91.5302 18.0705 91.5057 18.2026 91.4832 18.2972C91.4658 18.3719 91.4457 18.4424 91.4236 18.5107C91.3253 18.8038 91.2388 18.9772 91.1406 19.1729C91.0302 19.3859 90.9553 19.5175 90.854 19.6878C90.8057 19.7687 90.7513 19.8568 90.7029 19.9338C90.6583 20.0051 90.6122 20.0774 90.5648 20.1501C90.5205 20.2177 90.4763 20.2839 90.4326 20.3489C90.9694 20.3682 91.6731 20.2245 92.2559 19.9773C93.2863 19.5798 94.2555 19.2328 95.1755 18.9775C95.6378 18.8519 96.0875 18.7423 96.5692 18.6962C96.8084 18.6807 97.0519 18.6533 97.4015 18.7601C97.5773 18.8159 97.8314 18.9631 97.9519 19.2337C98.0119 19.3679 98.0274 19.481 98.029 19.5929C98.0294 19.6892 98.0153 19.7794 97.9971 19.8544C97.0601 21.7295 96.0564 22.1846 95.2817 22.983C93.9046 24.3391 93.2023 25.7877 92.1361 28.5666C91.8624 29.3071 91.5677 30.1305 91.2573 31.0089C91.2246 31.1704 91.1994 31.3237 91.1822 31.4684C91.1807 31.4823 91.1787 31.4967 91.1771 31.5113C91.1752 31.4954 91.1735 31.4771 91.17 31.456C91.1623 31.4292 91.1559 31.391 91.137 31.343C91.1244 31.3776 91.1126 31.4117 91.1005 31.4444C91.0873 31.4805 91.0752 31.513 91.0644 31.5421C91.0544 31.5687 91.0376 31.6142 91.0274 31.6407C91.0237 31.6502 91.012 31.681 91.0059 31.696C91.0011 31.7081 91.0041 31.7009 90.9915 31.7313C90.9833 31.7475 90.9911 31.7427 90.9489 31.8124C90.9419 31.8229 90.9332 31.8362 90.9158 31.8567C90.9046 31.8692 90.9041 31.8717 90.8718 31.9013C90.8413 31.9261 90.7992 31.9669 90.691 31.9974C90.5885 32.0334 90.3815 31.9969 90.2855 31.8965C90.1869 31.8022 90.1698 31.7255 90.1564 31.6811C90.1362 31.5913 90.1437 31.5667 90.1437 31.543C90.151 31.4691 90.155 31.4724 90.1578 31.4568C90.1754 31.3937 90.1838 31.3718 90.196 31.3342C90.2286 31.2375 90.2624 31.141 90.2962 31.0445C90.1948 31.0997 90.1543 31.1519 90.1426 31.1623C90.1232 31.183 90.1109 31.1988 90.1011 31.2117C90.0644 31.2616 90.0577 31.2774 90.0494 31.2916C90.0257 31.3365 90.0291 31.3307 90.0279 31.33C90.0274 31.3285 90.027 31.3261 90.0271 31.323C90.0268 31.3119 90.0334 31.282 90.0339 31.2684C90.0378 31.2335 90.0468 31.1837 90.0505 31.149C90.0755 30.9818 90.094 30.8353 90.1208 30.6703C90.3888 28.9593 90.6538 27.8392 91.9794 25.6103C92.9418 24.0581 93.4754 22.9256 94.2876 21.9375C94.6879 21.4385 95.0399 20.9815 95.4367 20.5619C94.7681 20.778 93.9463 21.1013 92.9303 21.5576C92.0292 21.8877 90.9875 22.5511 89.2123 22.0081C88.5357 22.8659 87.8919 23.6111 87.2831 24.2877C85.9558 25.7577 84.8222 26.8701 83.8385 27.795C81.2522 29.8199 76.0684 35.4866 68.9212 34.6563C68.2414 34.4722 67.5033 34.1087 66.8655 33.5314C65.9983 32.8859 65.3211 31.9228 64.8592 30.7982C61.5894 32.3872 60.6636 32.4991 56.1391 34.216C55.2932 34.4112 54.6847 34.8395 53.1526 34.4151C51.9402 33.9885 50.7431 32.6533 50.5694 31.3563C50.3412 30.0841 50.5618 29.0381 50.7752 28.1291C51.2432 26.314 51.8595 24.9748 52.1565 24.0437C52.2618 23.7396 52.3662 23.4799 52.4711 23.2502C52.2483 23.4922 52.0069 23.7601 51.7419 24.0618L51.7292 24.0754C51.4815 24.3387 51.2069 24.6316 50.9083 24.9506C47.8758 28.0782 46.1632 30.2314 41.503 32.7308C39.4744 33.7253 38.095 34.4036 36.3806 34.7644C34.8525 35.1725 31.8053 34.747 30.6309 31.842C30.5317 31.6133 30.4367 31.3728 30.3482 31.1205C29.7937 31.4444 29.2836 31.7349 28.83 31.9911C26.3543 33.185 23.6836 35.3855 18.9599 34.8006C17.6881 34.517 15.9963 33.4667 15.5385 31.7706C15.2367 30.7044 15.2928 29.734 15.4854 28.8448C14.0413 30.0651 12.5289 31.1925 10.9509 32.166C9.37446 33.096 7.59198 34.1394 5.29419 34.5532C4.18975 34.74 2.63758 34.6729 1.57 33.6455C0.534009 32.6374 0.303346 31.3678 0.198317 30.3113C-0.174851 26.2811 1.9191 23.0571 3.3879 21.4933C6.69238 18.3609 7.74193 17.7337 11.9594 16.5603C13.1951 16.3235 14.8185 16.3023 16.2942 16.9978C17.7904 17.67 18.8438 19.1326 19.1971 20.55C19.301 20.9558 19.3313 21.2341 19.3208 21.38C19.3535 21.3359 19.3857 21.2914 19.4186 21.2473L19.4358 21.2617C19.4602 21.2353 19.4849 21.2093 19.5092 21.1829L21.518 22.8678C21.4959 22.8959 21.4739 22.9242 21.4519 22.9525L21.4706 22.968C21.4057 23.04 21.3402 23.1116 21.2749 23.1835C20.6289 24.0386 20.0492 24.9372 19.5857 25.8091C18.524 27.7239 16.8881 31.7525 19.6809 32.0742C22.2192 32.494 25.8452 30.4551 27.4301 29.5059C28.4681 28.8356 29.2027 28.4024 29.806 28.0715C29.7281 24.5163 30.8751 22.589 31.9507 20.8502C33.2345 19.1289 34.8595 16.9568 39.2816 16.4948C39.727 16.4713 40.1834 16.4818 40.6445 16.5324C41.0747 16.5951 41.3981 16.6261 42.0046 16.982C42.5185 17.2443 43.1135 18.1502 43.1374 18.7601C43.2242 20.0375 42.8041 20.5679 42.5446 21.0959C41.9481 22.1108 41.2823 22.8393 40.5891 23.5622C39.2298 24.95 37.7466 26.1523 36.3125 27.2212C34.9331 28.2459 33.5763 29.1463 32.3353 29.9213C32.4181 30.1175 32.5109 30.2902 32.6121 30.435C32.6882 30.5693 32.758 30.6956 32.8222 30.816C33.1442 31.391 33.2731 31.7395 33.5568 32.1363C33.8394 32.506 34.3399 32.9739 35.489 32.9316C38.0126 32.6532 39.6082 31.7663 41.8493 30.6988C43.8372 29.8029 48.7451 25.9908 51.0204 23.3772L51.0096 23.3885C51.3573 22.98 51.6561 22.6144 51.8882 22.3089C52.8343 21.0639 54.0216 19.8789 55.134 18.8363C55.9168 17.2941 56.6141 16.127 57.3671 14.991L57.3518 15.0169C57.6404 14.5485 57.9357 14.0841 58.2482 13.6012C57.464 13.6702 56.7531 13.7338 56.2978 13.8164C55.1009 14.034 55.0873 13.6169 54.1292 13.3736C53.1794 13.1208 52.3605 14.1064 51.1613 13.8449C49.9709 13.5672 49.8783 13.017 48.5114 12.8844C47.1271 12.7406 45.91 11.962 45.2594 11.9485C44.5909 11.9277 44.784 11.2919 43.9363 11.0552C43.0841 10.7991 42.6438 10.4317 42.1427 9.81262C41.5897 9.22797 40.1172 7.48032 39.4928 6.85886C39.4495 6.82225 39.4083 6.78322 39.3697 6.74194L40.1675 5.94497C40.9119 6.20398 41.4133 6.99895 41.8024 7.3593C41.9317 7.47907 42.0229 7.59057 42.0862 7.6869C42.0999 7.70775 42.1051 7.73037 42.104 7.75242C42.4898 8.0027 42.8869 8.27649 43.3404 8.729C44.3778 9.64997 45.0482 8.90659 46.6178 10.0688C48.309 11.1771 48.7904 10.1892 50.6685 10.3306C52.5576 10.4556 55.0101 11.0589 56.2072 10.9654C57.2708 10.8921 58.6509 10.7046 60.1449 10.6192C60.2398 10.4615 60.3375 10.2983 60.4372 10.1303C60.9084 9.23314 61.5094 8.02714 62.1446 6.61344C63.3642 3.89947 63.9313 3.4186 65.4421 0.741211L66.3761 1.25577ZM131.17 17.0794C133.941 16.3982 134.676 16.2253 137.434 16.7462C139.065 17.0808 140.822 19.0147 141.01 20.8446C141.026 20.9697 141.035 21.0744 141.039 21.1597L141.313 21.389C141.334 21.3602 141.356 21.3318 141.377 21.3029L143.036 22.6946C143.018 22.7259 143 22.7572 142.982 22.7887L143.335 23.0852C143.033 23.3846 142.733 23.6741 142.437 23.9539C142.072 24.8693 141.762 25.8606 141.17 26.8947C140.615 27.8942 140.255 28.4353 139.953 29.045C139.679 29.6234 139.379 30.4251 139.718 31.3136C139.982 31.9376 140.502 32.3263 141.313 32.5834C141.496 32.6881 142.289 32.5552 142.802 32.36C143.356 32.1632 143.809 31.9271 144.112 31.698C145.085 30.9348 145.535 31.4606 146.977 30.3797C148.402 29.2819 149.335 28.7226 150.742 27.9648C151.025 27.814 151.413 27.5767 151.863 27.2833C153.036 26.0591 153.52 26.1147 155.413 24.4273C155.506 24.3429 155.613 24.2476 155.702 24.1657L156.469 25.1141C154.685 26.8337 153.595 28.1127 151.001 29.7217C148.213 31.3273 148.33 32.7948 143.707 34.3219C142.705 34.5638 141.84 34.8175 140.784 34.5809C138.411 34.1416 136.594 32.004 136.907 28.9964C135.184 30.5148 133.075 32.1691 130.495 33.4552C129.121 34.0777 127.652 34.8822 125.515 34.8534C124.464 34.8419 123.12 34.2428 122.441 33.2535C121.741 32.2875 121.515 31.2788 121.395 30.3379C121.334 29.8291 121.313 29.3171 121.33 28.8106C120.18 30.0502 119.321 31.0494 117.357 32.1338C116.241 32.7266 115.637 33.2662 114.847 33.804C114.036 34.2576 113.137 35.1206 110.804 34.6261C110.576 34.5609 110.357 34.4647 110.138 34.3115C109.285 33.6891 109.255 32.8387 109.237 32.4102C109.232 31.9272 109.283 31.5667 109.323 31.2218C109.405 30.5693 109.466 30.0319 109.506 29.511C109.593 28.4557 109.653 27.3928 110.174 25.6973C110.629 24.1918 111.284 22.558 111.567 21.1956C111.718 20.5275 111.671 19.9515 111.641 19.8756C111.635 19.8293 111.649 19.7984 111.539 19.7378C111.433 19.6823 111.256 19.6421 111.041 19.635C110.873 19.6277 110.699 19.6455 110.547 19.6793C109.006 19.9859 106.867 21.8542 104.826 23.9181C102.734 26.0012 100.842 29.2105 98.8576 31.8621C98.3855 32.4905 97.8713 33.1993 97.36 33.9294C97.2759 34.1434 97.1918 34.352 97.1061 34.5557L96.9745 34.4849C96.9587 34.5078 96.9428 34.5308 96.927 34.5538L95.0298 33.5331C95.0433 33.509 95.0566 33.4847 95.0701 33.4605L94.9292 33.3849C95.9611 31.3702 96.7362 30.0922 97.3091 29.1359C97.4181 28.9531 97.5519 28.7495 97.7051 28.5288C97.9299 28.1073 98.1335 27.733 98.3097 27.4251C99.3955 25.497 99.6563 25.0309 100.441 23.057C100.894 21.923 101.696 20.4391 102.591 19.3071C103.042 18.7388 103.133 18.9703 102.883 19.646C102.522 20.6335 102.064 21.3635 102.04 21.9505C102.023 22.4213 102.006 22.7806 101.941 23.1143C103.545 21.0353 107.221 17.4376 110.008 16.8783C110.378 16.7806 110.735 16.7365 111.041 16.732C112.834 16.7295 114.048 17.7818 114.206 19.7412C114.207 21.8258 114.682 23.3054 113.935 25.305C113.149 27.2217 112.495 27.3109 111.91 29.4904C111.691 30.3419 111.43 31.1819 111.33 31.8324C111.28 32.1388 111.288 32.3906 111.302 32.4727C111.46 32.4943 111.627 32.4764 111.762 32.4263C112.447 32.1217 112.755 32.7605 113.951 32.088C115.119 31.3686 115.873 30.9798 117.024 30.461C117.985 30.0607 120.27 28.4127 121.518 27.1811C121.567 26.9389 121.625 26.7003 121.692 26.4666C122.844 21.6232 128.397 17.7104 131.17 17.0794ZM15.2462 17.6366C13.2196 17.687 12.5048 17.928 10.0195 18.4774C7.51783 19.2182 6.9025 20.5913 5.79265 21.489C5.24358 21.9726 4.8968 22.1466 4.15917 22.992C3.53442 23.8346 2.00994 25.4578 2.0679 29.1433C2.08473 29.4594 2.11797 29.7688 2.16646 30.0752C2.29152 30.8879 2.559 31.5557 2.89198 31.8929C3.21699 32.2261 3.58915 32.3255 4.11935 32.3142C5.18188 32.2668 6.3409 31.7352 7.28182 31.234C9.19494 30.1832 10.5713 29.1029 11.6815 28.2201C13.3952 26.8573 16.5526 24.3261 19.2347 21.4772C19.1355 21.3796 18.9825 20.9847 18.6857 20.3902C17.7985 18.5566 16.2615 17.6614 15.2462 17.6366ZM135.746 17.7696C134.217 17.407 133.549 18.2503 132.705 18.402C131.916 18.709 131.422 17.8435 127.819 20.9479C126.974 21.8076 126.329 22.6226 125.835 23.386C125.883 23.3668 125.922 23.3734 125.948 23.3956C125.988 23.4308 125.993 23.5051 125.932 23.5837C125.697 23.8889 125.382 24.3199 125.031 24.8551C124.322 26.4266 124.233 27.7046 124.2 28.605C124.198 28.9855 124.197 29.4515 124.246 29.9959C124.312 30.872 124.589 31.7626 125.057 32.0112C125.522 32.3474 126.715 32.2129 127.664 31.7943C130.272 30.847 135.252 26.9719 136.921 25.1195C138.163 23.7769 138.645 23.5706 139.433 23.0494C139.861 22.4244 140.319 21.8271 140.788 21.2597C140.719 21.1447 140.638 20.9836 140.551 20.7852C140.022 19.6441 139.404 18.7968 138.782 18.5802C137.531 18.2215 137.174 18.2374 135.746 17.7696ZM91.1771 31.5113C91.1862 31.5911 91.1784 31.6117 91.1776 31.6359C91.1747 31.661 91.1722 31.6733 91.1703 31.683C91.1664 31.7014 91.1643 31.7076 91.1629 31.7121C91.1591 31.7226 91.1596 31.7159 91.1587 31.7152C91.1587 31.665 91.1687 31.5853 91.1771 31.5113ZM39.3047 19.6934C37.943 19.5326 36.6329 19.6716 34.5943 21.4012C32.8079 22.9546 32.0621 25.1015 31.9382 26.9656C32.4237 26.7058 32.9842 26.3873 33.7307 25.9209C36.1086 24.3237 37.884 21.8917 39.3047 19.6934ZM74.814 19.4887C74.3312 19.3325 73.8583 19.2997 73.4353 19.3387C71.1156 19.3962 68.0633 22.2546 67.1535 25.5239C68.1398 24.9202 69.111 24.3009 70.0415 23.6701C71.457 22.7058 72.8166 21.6898 73.8267 20.696C74.2665 20.2676 74.6489 19.7918 74.814 19.4887ZM96.8991 20.2501C96.94 20.2639 96.9615 20.2641 96.9691 20.2636C96.9816 20.2596 96.9506 20.2529 96.8991 20.2501ZM40.1582 19.8191C40.2244 19.8591 40.2747 19.8722 40.2994 19.8767C40.3394 19.8789 40.3206 19.8552 40.2567 19.8352C40.2238 19.8299 40.1909 19.8244 40.1582 19.8191ZM89.8537 18.5161C89.8449 18.5191 89.8342 18.5267 89.8215 18.5372C89.8612 18.5284 89.8794 18.5046 89.8537 18.5161Z" fill="#8DBDFF"/>
<path d="M135.113 30.0633C134.442 30.0633 133.914 29.8936 133.528 29.5543C133.143 29.2073 132.95 28.7407 132.95 28.1546C132.95 27.5608 133.143 27.0943 133.528 26.7549C133.914 26.4156 134.434 26.246 135.09 26.246H137.056V25.6097C137.056 25.2164 136.937 24.9157 136.698 24.7075C136.467 24.4915 136.135 24.3836 135.703 24.3836C135.325 24.3836 135.009 24.4645 134.755 24.6265C134.5 24.7807 134.353 24.9928 134.315 25.2627H133.274C133.343 24.7152 133.602 24.2795 134.049 23.9556C134.496 23.6317 135.055 23.4697 135.726 23.4697C136.459 23.4697 137.037 23.6587 137.461 24.0365C137.885 24.4144 138.098 24.9273 138.098 25.575V29.9476H137.08V28.733H136.906L137.08 28.5595C137.08 29.0222 136.898 29.3885 136.536 29.6584C136.181 29.9283 135.707 30.0633 135.113 30.0633ZM135.368 29.242C135.861 29.242 136.266 29.1186 136.582 28.8718C136.898 28.6251 137.056 28.3089 137.056 27.9233V27.021H135.113C134.766 27.021 134.492 27.1174 134.292 27.3102C134.091 27.503 133.991 27.7652 133.991 28.0968C133.991 28.4515 134.111 28.733 134.35 28.9412C134.596 29.1417 134.936 29.242 135.368 29.242Z" fill="#333333"/>
<path d="M112.445 29.9476V23.5854H113.486V24.8H113.706L113.486 25.0429C113.486 24.5417 113.637 24.1561 113.937 23.8862C114.238 23.6085 114.654 23.4697 115.187 23.4697C115.827 23.4697 116.336 23.6664 116.714 24.0597C117.091 24.453 117.28 24.9889 117.28 25.6676V29.9476H116.239V25.7833C116.239 25.3283 116.116 24.9812 115.869 24.7422C115.63 24.4954 115.302 24.372 114.886 24.372C114.454 24.372 114.111 24.5031 113.856 24.7653C113.61 25.0275 113.486 25.4054 113.486 25.8989V29.9476H112.445Z" fill="#333333"/>
<path d="M91.8474 29.9476V23.5854H92.8654V24.8H93.1083L92.7728 25.5519C92.7728 24.8656 92.9193 24.3489 93.2124 24.0018C93.5132 23.6471 93.9566 23.4697 94.5427 23.4697C95.2136 23.4697 95.7457 23.6818 96.139 24.1059C96.54 24.5224 96.7405 25.0892 96.7405 25.8064V26.1881H95.6994V25.8989C95.6994 25.3977 95.5761 25.0159 95.3293 24.7537C95.0902 24.4838 94.747 24.3489 94.2998 24.3489C93.8602 24.3489 93.5132 24.4838 93.2587 24.7537C93.0119 25.0236 92.8885 25.4054 92.8885 25.8989V29.9476H91.8474Z" fill="#333333"/>
<path d="M73.2165 30.0633C72.7153 30.0633 72.2757 29.963 71.8978 29.7625C71.5277 29.562 71.2385 29.2806 71.0302 28.9181C70.8297 28.5479 70.7295 28.1199 70.7295 27.6341V25.8989C70.7295 25.4054 70.8297 24.9774 71.0302 24.6149C71.2385 24.2525 71.5277 23.971 71.8978 23.7705C72.2757 23.57 72.7153 23.4697 73.2165 23.4697C73.7178 23.4697 74.1535 23.57 74.5237 23.7705C74.9016 23.971 75.1908 24.2525 75.3913 24.6149C75.5995 24.9774 75.7036 25.4054 75.7036 25.8989V27.021H71.7474V27.6341C71.7474 28.1354 71.8747 28.5209 72.1292 28.7909C72.3837 29.0531 72.7461 29.1842 73.2165 29.1842C73.6176 29.1842 73.9414 29.1147 74.1882 28.9759C74.435 28.8294 74.5854 28.6135 74.6394 28.3281H75.6805C75.611 28.8603 75.3488 29.2844 74.8938 29.6006C74.4466 29.9091 73.8875 30.0633 73.2165 30.0633ZM74.6856 26.3269V25.8989C74.6856 25.3977 74.5584 25.0121 74.3039 24.7422C74.0571 24.4723 73.6947 24.3373 73.2165 24.3373C72.7461 24.3373 72.3837 24.4723 72.1292 24.7422C71.8747 25.0121 71.7474 25.3977 71.7474 25.8989V26.2344H74.7666L74.6856 26.3269Z" fill="#333333"/>
<path d="M53.0931 29.9472C52.5455 29.9472 52.1175 29.8007 51.8091 29.5076C51.5083 29.2146 51.3579 28.802 51.3579 28.2699V24.5335H49.5649V23.585H51.3579V21.792H52.399V23.585H54.9439V24.5335H52.399V28.2699C52.399 28.7557 52.6304 28.9987 53.0931 28.9987H54.8282V29.9472H53.0931Z" fill="#333333"/>
<path d="M31.5818 30.0633C31.0805 30.0633 30.6409 29.963 30.2631 29.7625C29.8929 29.562 29.6037 29.2806 29.3955 28.9181C29.195 28.5479 29.0947 28.1199 29.0947 27.6341V25.8989C29.0947 25.4054 29.195 24.9774 29.3955 24.6149C29.6037 24.2525 29.8929 23.971 30.2631 23.7705C30.6409 23.57 31.0805 23.4697 31.5818 23.4697C32.083 23.4697 32.5188 23.57 32.8889 23.7705C33.2668 23.971 33.556 24.2525 33.7565 24.6149C33.9647 24.9774 34.0688 25.4054 34.0688 25.8989V27.021H30.1127V27.6341C30.1127 28.1354 30.2399 28.5209 30.4944 28.7909C30.7489 29.0531 31.1114 29.1842 31.5818 29.1842C31.9828 29.1842 32.3067 29.1147 32.5535 28.9759C32.8002 28.8294 32.9506 28.6135 33.0046 28.3281H34.0457C33.9763 28.8603 33.7141 29.2844 33.2591 29.6006C32.8118 29.9091 32.2527 30.0633 31.5818 30.0633ZM33.0509 26.3269V25.8989C33.0509 25.3977 32.9236 25.0121 32.6691 24.7422C32.4224 24.4723 32.0599 24.3373 31.5818 24.3373C31.1114 24.3373 30.7489 24.4723 30.4944 24.7422C30.2399 25.0121 30.1127 25.3977 30.1127 25.8989V26.2344H33.1318L33.0509 26.3269Z" fill="#333333"/>
<path d="M10.2095 30.0633C9.53862 30.0633 9.01036 29.8936 8.62477 29.5543C8.23918 29.2073 8.04639 28.7407 8.04639 28.1546C8.04639 27.5608 8.23918 27.0943 8.62477 26.7549C9.01036 26.4156 9.5309 26.246 10.1864 26.246H12.1529V25.6097C12.1529 25.2164 12.0334 24.9157 11.7943 24.7075C11.563 24.4915 11.2314 24.3836 10.7995 24.3836C10.4216 24.3836 10.1054 24.4645 9.85094 24.6265C9.59645 24.7807 9.44993 24.9928 9.41137 25.2627H8.37028C8.43969 24.7152 8.69803 24.2795 9.14532 23.9556C9.5926 23.6317 10.1517 23.4697 10.8226 23.4697C11.5552 23.4697 12.1336 23.6587 12.5578 24.0365C12.9819 24.4144 13.194 24.9273 13.194 25.575V29.9476H12.176V28.733H12.0025L12.176 28.5595C12.176 29.0222 11.9948 29.3885 11.6324 29.6584C11.2776 29.9283 10.8033 30.0633 10.2095 30.0633ZM10.464 29.242C10.9576 29.242 11.3625 29.1186 11.6786 28.8718C11.9948 28.6251 12.1529 28.3089 12.1529 27.9233V27.021H10.2095C9.86251 27.021 9.58874 27.1174 9.38824 27.3102C9.18773 27.503 9.08748 27.7652 9.08748 28.0968C9.08748 28.4515 9.20701 28.733 9.44607 28.9412C9.69285 29.1417 10.0322 29.242 10.464 29.242Z" fill="#333333"/>
</svg>
