<svg width="33" height="30" viewBox="0 0 33 30" fill="none" xmlns="http://www.w3.org/2000/svg">
<path d="M13.6022 11.184C13.5306 11.2272 13.4232 11.2215 13.3462 11.1938C13.322 11.1853 13.3598 11.1348 13.344 11.1258C13.3127 11.1075 13.2636 11.1341 13.2335 11.1106C13.2238 11.1024 13.2772 11.0179 13.2661 11.0107C13.205 10.9702 13.1212 10.9889 13.0492 10.9658C12.9525 10.9337 12.8541 10.9027 12.7544 10.8732C12.5942 10.8319 12.406 10.8258 12.1917 10.8333C12.0971 10.8374 11.9587 10.7387 11.8572 10.8287C11.8457 10.8395 11.8718 10.9662 11.8709 10.9776C11.8599 11.1529 11.8328 10.8879 11.8026 10.8607C11.6833 10.7535 11.5612 10.776 11.4769 10.8624C11.4411 10.8995 11.5491 11.1497 11.4709 11.0162C11.4654 11.0072 11.4394 10.8614 11.4241 10.8504C11.3892 10.8255 11.3461 10.8691 11.3228 10.8654C11.2773 10.8574 11.2708 10.8614 11.2333 10.8739C11.1816 10.8899 11.0972 10.8423 11.0527 10.897C11.0434 10.9092 11.1086 11.0501 11.099 11.0828C11.0895 11.1154 11.0377 11.1234 11.009 11.0957C10.9803 11.0679 10.9452 10.9491 10.9327 10.9238C10.8262 10.7098 10.882 11.0447 10.8789 11.0555C10.811 11.2122 10.6753 11.1529 10.557 11.1628C10.5337 11.1644 10.5112 11.1691 10.4905 11.1792C10.3982 11.2244 10.3294 11.3292 10.2397 11.3678C10.2389 11.3681 10.2382 11.3684 10.2375 11.3687C10.1302 11.4125 9.99917 11.3858 9.90797 11.457C9.89828 11.4644 10.0069 11.6195 9.99557 11.6287C9.87549 11.7255 9.74032 11.7876 9.54087 11.7715C9.52073 11.7699 9.44161 11.6233 9.41549 11.6137C9.25995 11.5558 8.92444 11.4014 9.32711 11.9993C9.26008 12.0159 9.18328 12.0407 9.04524 11.9681C8.95601 11.9218 8.8667 11.7622 8.88082 11.8509C8.884 11.8707 8.99763 11.9801 8.99491 12.0005C8.98397 12.0857 8.89681 12.0954 8.90634 12.1972C8.9086 12.2181 9.00811 12.3171 9.023 12.3378C9.1439 12.5045 8.87354 12.2952 8.84762 12.2864C8.65824 12.2155 8.66477 12.3122 8.60873 12.3658C8.59562 12.3783 8.74912 12.4886 8.74187 12.5047C8.70285 12.5862 8.63401 12.6404 8.51568 12.655C8.48895 12.6581 8.37455 12.5468 8.35521 12.5435C8.27057 12.5318 8.50395 12.7202 8.42921 12.7111C8.41367 12.7096 8.3071 12.6255 8.29419 12.6178C8.09065 12.4991 8.34621 12.7112 8.34904 12.7196C8.38716 12.8359 8.0733 12.6828 8.07155 12.7754C8.07195 12.7862 8.22734 12.8606 8.21999 12.8846C8.17235 13.0453 8.05534 13.1602 7.86702 13.2584C7.83799 13.2739 7.72749 13.2102 7.71245 13.2057C7.47529 13.1414 7.77247 13.2781 7.78114 13.2893C7.84035 13.3783 7.56037 13.3549 7.9161 13.511C7.72856 13.7044 7.8412 13.9445 7.63416 14.175C7.60842 14.2078 7.57756 14.2413 7.54047 14.2758C7.5366 14.2798 7.38139 14.2758 7.37438 14.2839C7.28895 14.3824 7.52991 14.3583 7.82412 14.4035C7.89773 14.4138 7.54595 14.4788 7.52055 14.4853C7.42603 14.5065 7.19661 14.5045 7.17844 14.5108C7.03665 14.5656 7.79107 14.5079 7.79367 14.561C7.79252 14.5629 7.65361 14.5665 7.6401 14.5722C7.59776 14.5903 7.65364 14.6003 7.60704 14.6187C7.49911 14.6605 7.13678 14.7093 7.35331 14.7408C7.38134 14.7444 7.80385 14.6903 7.78788 14.7407C7.7811 14.7612 7.79672 14.8456 7.77254 14.8736C7.74824 14.9016 7.61162 14.9042 7.60595 14.9067C7.43665 15.0001 7.35975 14.9855 7.10266 15.0621C6.84757 15.1406 7.4685 15.0305 7.53988 15.0328C7.61096 15.035 7.47317 15.1093 7.42511 15.1312C7.37685 15.1527 7.28971 15.1522 7.26318 15.1686C7.09108 15.2788 7.57503 15.1446 7.6767 15.1496C7.91622 15.158 7.46966 15.2913 7.43736 15.3548C7.42844 15.3715 7.52853 15.3373 7.5407 15.3475C7.58725 15.3875 7.45472 15.4508 7.59504 15.4746C7.61824 15.4792 7.89386 15.4528 7.70602 15.5322C7.67902 15.5438 7.56624 15.5615 7.54701 15.5889C7.51803 15.6298 7.50983 15.6932 7.55559 15.7157C7.58932 15.7322 7.75961 15.6513 7.71273 15.6979C7.69192 15.7188 7.58061 15.7251 7.5505 15.7623C7.52035 15.7994 7.54542 15.8641 7.55706 15.8877C7.56873 15.9114 7.69696 15.8534 7.70657 15.8525C7.76156 15.8474 7.83966 15.871 7.84077 15.8749C7.91919 16.0668 7.78228 16.344 7.94444 16.5033C7.95677 16.5156 8.07824 16.4412 8.08142 16.4424C8.15803 16.4647 7.80394 16.5978 7.71146 16.6931C7.96281 16.5544 7.9275 16.5998 7.9737 16.6205C7.99613 16.6303 8.0883 16.5679 8.09908 16.564C8.25871 16.5076 8.07785 16.6293 8.04204 16.6558C7.90948 16.7526 8.0864 16.6756 7.99861 16.741C7.91219 16.8066 7.75837 16.8595 7.78093 16.8939C7.87387 16.8521 8.0886 16.6932 8.1396 16.6964C8.32822 16.7057 8.25728 16.9812 8.29496 17.0669C8.32877 17.1502 8.36033 17.1611 8.36409 17.2235C8.37264 17.3363 8.49684 17.1893 8.59547 17.1752C8.69342 17.1599 8.33287 17.4454 8.26411 17.5174C8.19617 17.5897 8.27844 17.529 8.24545 17.5734C8.21279 17.618 8.14641 17.6452 8.14952 17.6783C8.15338 17.7122 8.33107 17.6446 8.41002 17.5791C8.57843 17.4414 8.72213 17.2623 8.7051 17.3615C8.70415 17.3674 8.6117 17.4433 8.61252 17.4616C8.62306 17.605 8.70395 17.688 8.74115 17.821C8.74636 17.8396 8.65434 17.9312 8.65674 17.9433C8.6838 18.0692 8.79146 17.877 8.97373 17.7156C8.77347 17.9639 8.67974 18.1387 8.74476 18.185C8.78323 18.2124 8.85501 18.0943 8.9328 18.0299C8.95587 18.0103 8.93013 18.1063 8.97022 18.0554C9.09998 17.8886 9.20512 17.6758 9.20969 17.7922C9.20986 17.7977 9.14125 17.8898 9.14641 17.9015C9.18103 17.9774 9.29956 17.7944 9.36956 17.8072C9.42391 17.8172 9.45011 17.981 9.50167 18.0284C9.36084 18.3368 9.45791 18.2938 9.56787 18.0894C9.60305 18.1154 9.65031 18.121 9.67798 18.1656C9.68764 18.1808 9.64693 18.2678 9.64512 18.2782C9.61879 18.4413 9.71001 18.2383 9.7209 18.2333C9.75357 18.2211 9.77909 18.2251 9.80237 18.2351L9.73344 18.2255C9.80361 18.2322 9.87357 18.2869 9.93902 18.1677C9.94237 18.1617 9.93276 17.9407 9.96981 18.1011C9.97249 18.112 9.94667 18.2141 9.9941 18.2195C10.0407 18.2256 10.1427 18.3345 10.1971 18.228C10.2106 18.2022 10.2271 18.0261 10.2765 18.1575C10.2832 18.1753 10.2868 18.2366 10.2977 18.2696C10.3331 18.3745 10.3133 18.1601 10.3635 18.3375C10.4137 18.515 10.4893 18.6384 10.5375 18.5025C10.5392 18.4985 10.5258 18.3309 10.5471 18.3298C10.5816 18.328 10.6363 18.3524 10.6713 18.3438C10.6881 18.3396 10.656 18.2422 10.6585 18.2398C10.7573 18.1618 10.8553 18.2323 10.9854 18.235C11.0097 18.2352 11.0326 18.0913 11.1051 18.1779C11.1858 18.2711 11.283 18.7377 11.3619 18.586C11.3961 18.5221 11.244 17.9565 11.4276 18.2072C11.4857 18.1444 11.5596 18.1306 11.6333 18.1109C11.7122 18.0871 11.7865 18.06 11.8331 17.9756C11.8372 17.9682 11.7852 17.8253 11.8006 17.8197C11.824 17.8113 11.8696 17.8658 11.8869 17.8616C11.9616 17.8444 11.9928 17.7609 12.0595 17.7353C12.0848 17.7253 12.1102 17.7902 12.1398 17.778C12.1696 17.7655 12.1452 17.6766 12.2042 17.6935C12.2493 17.7065 12.3648 17.8483 12.4124 17.8434C12.3283 17.6883 12.3561 17.6765 12.3804 17.6104C12.3851 17.5977 12.3462 17.5502 12.3469 17.5415C12.3491 17.505 12.3894 17.5399 12.3896 17.5017C12.3897 17.4925 12.3614 17.4412 12.3599 17.4308C12.3463 17.3413 12.4563 17.4319 12.475 17.447C12.5468 17.5053 12.5246 17.4325 12.564 17.4491C12.6032 17.4654 12.5891 17.5208 12.6257 17.5232C12.7014 17.5278 12.7673 17.4786 12.8248 17.4482C12.8474 17.4359 12.7969 17.3817 12.7993 17.3785C12.8371 17.3368 12.9208 17.3751 12.8778 17.239C13.087 17.5351 12.8887 17.1929 12.9911 17.219C12.9992 17.2212 13.088 17.362 13.0802 17.3956C13.0719 17.4297 13.017 17.4012 13.0082 17.4521C13.0063 17.4636 13.0484 17.6273 13.0481 17.6396C13.0475 17.7327 12.914 17.5092 12.9048 17.4978C12.8047 17.3769 12.8458 17.5583 12.8402 17.5771C12.8137 17.6606 12.7486 17.6565 12.7237 17.7212C12.7071 17.7635 12.7927 17.9242 12.7672 17.9349C12.6827 17.9718 12.5279 17.7589 12.5662 18.0056C12.5743 18.0585 12.6907 18.2307 12.5563 18.1248C12.5479 18.1185 12.433 18.0127 12.4559 18.1128C12.4588 18.1255 12.4889 18.1797 12.4875 18.1869C12.4775 18.2346 12.4363 18.2028 12.419 18.2435C12.4022 18.2838 12.3849 18.3398 12.3422 18.3431C12.3159 18.3456 12.2329 18.2569 12.2091 18.237C12.1402 18.1798 12.1799 18.3215 12.1124 18.241C12.0448 18.159 12.0016 17.9993 11.9239 17.9651C12.0046 18.1168 12.0854 18.274 12.1655 18.4277C12.0735 18.4831 11.967 18.4974 11.8665 18.5565L11.8504 18.5645C11.8398 18.5703 11.8293 18.5764 11.819 18.5829C11.8047 18.5922 11.861 18.672 11.8464 18.6846C11.7841 18.7376 11.6969 18.704 11.6366 18.765C11.59 18.8127 11.5663 18.9422 11.5151 18.9957C11.407 18.8066 11.3459 18.9122 11.276 18.918C11.2519 18.9199 11.2362 18.8622 11.2151 18.8494C11.1363 18.8016 11.219 18.982 11.2112 19.0183C11.1756 19.1747 11.0499 18.7401 10.9739 18.775C10.9703 18.7764 10.9759 19.0311 10.9714 19.0489C10.9469 19.1616 10.9438 18.9681 10.9103 18.9594C10.8489 18.9434 10.8004 18.895 10.7522 18.984C10.7386 19.01 10.7229 19.1773 10.6642 19.0667C10.6566 19.0521 10.6441 18.9689 10.6395 18.965C10.5571 18.9004 10.6006 19.1617 10.5738 19.2614C10.5466 19.3613 10.4551 19.1932 10.4356 19.1422C10.3835 19.0115 10.4524 19.0783 10.4523 19.0643C10.4494 18.9001 10.4095 18.9367 10.3742 18.9293C10.3337 18.6675 10.2913 18.6901 10.3378 18.9226C10.343 18.948 10.3659 18.9186 10.3742 18.9293C10.3801 19.1925 10.3266 19.2396 10.2416 19.0043C10.2023 18.8936 10.2134 18.7558 10.139 18.8158C10.105 18.8428 10.1358 19.0272 10.1068 19.083C10.039 19.2112 9.92671 19.0476 9.84999 19.0823C9.82155 19.0952 9.8535 19.1976 9.83385 19.2102C9.80604 19.2281 9.77889 19.2155 9.75198 19.2061L9.51796 19.1737C9.49597 19.1579 9.47355 19.1446 9.44127 19.156C9.43492 19.1583 9.41312 19.2677 9.39469 19.2645C9.25399 19.2416 9.16198 19.137 9.02738 19.0839C8.96216 19.0586 8.81657 19.0674 8.75444 19.0243C8.64535 18.9514 8.6003 18.7309 8.48828 18.7124C8.41401 18.6994 8.35869 18.8065 8.28509 18.858C8.13966 18.957 8.21877 18.6656 8.23709 18.623C8.23775 18.6217 8.30447 18.6322 8.31586 18.5644C8.37978 18.45 8.23819 18.623 8.23709 18.623C8.24659 18.5951 8.16756 18.5046 8.13399 18.5084C8.11549 18.5107 8.04666 18.605 8.03825 18.6044C7.83929 18.5875 7.68297 18.4993 7.60038 18.3461C7.59998 18.3424 7.70024 18.2522 7.69824 18.2448C7.6738 18.1392 7.51062 18.2095 7.37853 18.2162C7.24715 18.2231 7.22569 18.1519 7.38003 17.9701C7.31732 17.9447 7.34621 17.8168 7.36898 17.7428C7.39181 17.669 7.16774 17.8225 7.16053 17.8223C6.93613 17.817 7.01543 17.664 6.95898 17.5403C6.93184 17.4807 6.82642 17.3944 6.7621 17.349C6.71057 17.3134 6.75115 17.2537 6.68771 17.2295C6.67916 17.2261 6.57175 17.2905 6.56638 17.2909C6.40292 17.3097 6.68996 17.1926 6.73271 17.1573C6.8888 17.0293 6.97314 16.9615 6.85553 16.942C6.82913 16.9382 6.40369 17.0875 6.36422 17.0697C6.31457 17.0472 6.46757 16.9939 6.41259 16.9726C6.40803 16.9707 6.31802 17.0122 6.30972 16.9868C6.26994 16.8692 6.26678 16.7277 6.20694 16.6164C6.19906 16.6009 6.05836 16.6776 6.04426 16.6558C5.97816 16.5534 5.93342 16.429 5.9657 16.299C5.97417 16.2669 6.08891 16.2497 6.11903 16.234C6.30191 16.1399 6.00049 16.1778 5.99176 16.1705C5.78384 16.0117 6.00138 15.7935 5.82172 15.6208C5.81177 15.6126 5.4683 15.5875 5.73475 15.496C5.75225 15.4894 6.02658 15.4008 5.82549 15.4025C5.81286 15.4024 5.67232 15.4523 5.67768 15.4078C5.68327 15.3639 5.57007 15.311 5.72072 15.2292C5.76792 15.2028 6.04697 15.1211 5.80864 15.0994C5.79254 15.0998 5.25709 15.0786 5.61142 15.0048C5.66981 14.9928 6.05132 14.9543 5.84641 14.9129C5.80663 14.9047 5.72483 14.9363 5.6667 14.9092C5.57691 14.8669 5.67059 14.7916 5.49127 14.7422C5.45967 14.7341 5.19156 14.7044 5.38614 14.6523C5.41666 14.6443 5.54692 14.647 5.55922 14.6263C5.61854 14.5285 5.52318 14.4335 5.60714 14.3347C5.63676 14.3001 5.84858 14.313 5.9034 14.2781C5.94348 14.2526 5.98199 14.2098 5.96182 14.175C5.95438 14.1601 5.93902 14.1463 5.91278 14.135C5.81525 14.0919 5.47814 14.1349 5.45012 14.0662C5.32899 13.7609 5.55476 13.4769 5.63749 13.2043C5.64995 13.1631 5.5228 13.1714 5.53327 13.1074C5.56698 12.8738 5.58392 12.4279 5.90498 12.3508C6.158 12.2946 6.23398 12.5344 6.35603 12.4671C6.41344 12.4378 6.06934 12.2111 6.06392 12.1919C6.00261 12.0123 6.20473 12.0127 6.21088 11.8838C6.2124 11.8567 6.05682 11.7956 6.05998 11.773C6.06992 11.6941 6.17119 11.6663 6.19445 11.6008C6.20464 11.5712 6.09433 11.5078 6.11753 11.4885C6.17177 11.4417 6.24889 11.4199 6.38257 11.4342C6.3946 11.4358 6.50426 11.5576 6.53512 11.5216C6.58526 11.4624 6.73274 11.4576 6.68608 11.3148C6.67178 11.2723 6.44113 11.0916 6.63445 11.1708C6.67497 11.1873 6.94151 11.4176 6.74224 11.1781C6.70789 11.1397 6.46058 10.7895 6.69815 10.9176C6.76061 10.9513 7.0019 11.1125 6.98648 11.0604C6.98368 11.0525 6.8539 10.9615 6.85862 10.932C6.87766 10.8295 6.95201 10.7706 6.97788 10.6693C6.98474 10.6418 6.84101 10.5559 6.85552 10.5181C6.89561 10.4134 7.01505 10.3505 7.12058 10.3192C7.15971 10.3079 7.23549 10.4244 7.24762 10.4332C7.44248 10.5801 7.23696 10.3262 7.23447 10.3023C7.22037 10.1586 7.37151 10.2275 7.40288 10.145C7.41205 10.1223 7.29849 10.0151 7.29264 10.0017C7.2383 9.86856 7.39558 10.1027 7.43701 10.1072C7.55338 10.1208 7.6108 10.0555 7.65956 9.98956C7.67731 9.96517 7.53862 9.8451 7.55622 9.82457C7.65847 9.7002 7.80035 9.61289 7.97989 9.60636C8.01381 9.60546 8.08019 9.72979 8.10335 9.7524C8.26374 9.91184 8.13635 9.62922 8.13157 9.59718C8.1074 9.45253 8.19651 9.54129 8.22879 9.49163C8.38617 9.24584 8.71464 9.14472 8.95767 9.07342C8.98194 9.06611 9.00595 9.05952 9.0297 9.05351C9.22282 9.00427 9.40439 8.99215 9.57841 8.95214C9.66335 8.93331 9.74753 8.9069 9.83169 8.86615C9.8493 8.85786 9.76157 8.69386 9.77585 8.68464C9.96678 8.57292 10.2007 8.5806 10.4053 8.48411C10.4224 8.47656 10.3449 8.32053 10.3712 8.30307C10.4252 8.26604 10.5072 8.26079 10.5853 8.30187C10.6228 8.32164 10.6211 8.46625 10.6576 8.48326C10.7425 8.52313 10.82 8.52304 10.8873 8.48817C10.9159 8.47311 10.8279 8.31563 10.8691 8.309C11.148 8.26021 11.4493 8.22855 11.7741 8.44859C11.7967 8.46387 11.8418 8.77784 11.8782 8.72013C11.8747 8.63381 11.8666 8.53208 11.861 8.43976C12.3005 8.42882 12.7641 8.63763 13.1943 8.86367C13.2128 8.87353 13.2161 8.72469 13.2528 8.74407C13.3298 8.785 13.4063 8.82407 13.4798 8.87121C13.5636 8.9374 13.6414 9.02148 13.6998 9.16286C13.7089 9.18471 13.6255 9.37434 13.6768 9.37438C13.6858 9.37409 13.7553 9.39411 13.7871 9.36679C13.7917 9.36253 13.8162 9.26684 13.8363 9.28069C13.9522 9.3627 14.0594 9.49006 14.1501 9.6407C14.1648 9.66514 14.1085 9.72221 14.1187 9.73978C14.1902 9.85967 14.3197 9.9059 14.3826 10.0681C14.4252 10.1766 14.3297 10.2458 14.2905 10.3693C14.2842 10.3853 14.3217 10.4309 14.2774 10.4785C14.1652 10.5944 14.03 10.7133 13.913 10.8401C13.8941 10.8615 13.9101 10.8406 13.8851 10.8594C13.8851 10.8594 13.8851 10.8594 13.8851 10.8594C13.878 10.8654 13.868 10.8756 13.8533 10.893C13.8503 10.8994 13.825 10.9342 13.8009 10.9594C13.7852 10.9778 13.7438 11.024 13.7231 11.0505C13.7026 11.0777 13.7337 11.0374 13.7032 11.0685C13.6722 11.1007 13.6323 11.1646 13.6022 11.184ZM7.48088 17.4156C7.56724 17.3101 7.16097 17.571 7.28441 17.5445C7.29086 17.5429 7.47676 17.4209 7.48088 17.4156ZM11.8285 18.2901C11.7219 18.1903 11.7895 18.3902 11.8697 18.4686C11.9509 18.5451 11.8605 18.3199 11.8285 18.2901ZM12.1969 17.9543C12.1005 17.8917 12.2961 18.2649 12.3041 18.1586C12.3046 18.1525 12.2025 17.9578 12.1969 17.9543ZM14.1261 10.2693C14.1249 10.2727 14.1483 10.2952 14.151 10.2931C14.2084 10.2358 14.1596 10.186 14.1261 10.2693ZM12.5601 17.6251C12.5201 17.5882 12.5073 17.6651 12.557 17.7114C12.5969 17.7483 12.6095 17.6706 12.5601 17.6251ZM7.18476 15.4121C7.19234 15.4098 7.19483 15.3881 7.1512 15.3979C7.01068 15.4299 7.05707 15.4502 7.18476 15.4121ZM13.257 17.2097C13.149 17.2632 12.9477 17.0545 13.0779 17.0223C13.1013 17.016 13.0762 17.1216 13.115 17.1286C13.1842 17.1402 13.1331 16.9772 13.2256 17.0282C13.243 17.0364 13.2641 17.2063 13.257 17.2102C13.257 17.21 13.257 17.2099 13.257 17.2097ZM7.94929 17.0758C7.95417 17.0716 7.94358 17.0446 7.93794 17.0475C7.80079 17.1183 7.82374 17.1744 7.94929 17.0758ZM7.38874 14.2065C7.39636 14.2058 7.4038 14.1905 7.40786 14.175C7.41213 14.1592 7.41275 14.143 7.40536 14.1419C7.25466 14.123 7.17357 14.1483 7.17459 14.175C7.17549 14.199 7.24421 14.2209 7.38874 14.2065ZM9.49891 18.0371C9.57868 17.9276 9.61032 17.9266 9.56782 18.0892C9.5457 18.0697 9.52089 18.0568 9.49891 18.0371Z" fill="#52524F"/>
<path d="M16.6992 9.13615C16.7199 9.24671 16.7013 9.36529 16.6638 9.44225C16.6524 9.46646 16.6063 9.42312 16.5955 9.43824C16.5739 9.46744 16.5947 9.51913 16.5683 9.54505C16.5591 9.55338 16.4817 9.49034 16.4735 9.49993C16.4275 9.55226 16.4371 9.63308 16.407 9.69509C16.3418 9.82599 16.2677 9.97499 16.2291 10.0721C16.1565 10.2427 16.0892 10.4129 16.0133 10.5834C15.9702 10.6838 15.8153 10.762 15.8394 10.8956C15.8425 10.9113 15.9644 10.9547 15.9737 10.9613C16.1167 11.0641 15.8769 10.948 15.8378 10.9595C15.6837 11.0047 15.6378 11.1108 15.6619 11.2244C15.6724 11.2731 15.9383 11.3311 15.7848 11.3161C15.7744 11.3151 15.6402 11.2526 15.6226 11.258C15.5831 11.2698 15.5942 11.3273 15.5782 11.3419C15.5459 11.3715 15.5459 11.3772 15.5345 11.4122C15.5183 11.4583 15.4317 11.4909 15.4504 11.5527C15.4549 11.5659 15.6059 11.6014 15.6266 11.6272C15.6473 11.653 15.624 11.6929 15.5851 11.6965C15.5463 11.7 15.4306 11.6558 15.4031 11.6498C15.1697 11.5998 15.4712 11.7523 15.478 11.7606C15.5692 11.8978 15.4276 11.9526 15.3785 12.0178C15.3699 12.0327 15.3634 12.0483 15.3602 12.0649C15.3427 12.1581 15.3843 12.2706 15.3593 12.3577C15.3591 12.3584 15.3589 12.3591 15.3587 12.3598C15.3267 12.464 15.2237 12.5391 15.219 12.6469C15.2183 12.6583 15.4065 12.6791 15.4061 12.6929C15.4014 12.8392 15.3561 12.9772 15.2062 13.1013C15.1911 13.1137 15.0308 13.0686 15.0059 13.0795C14.8566 13.1468 14.512 13.2418 15.2142 13.4025C15.1768 13.4582 15.1365 13.5276 14.9852 13.5613C14.8877 13.5833 14.7153 13.5236 14.7846 13.5779C14.8 13.59 14.9574 13.5996 14.9687 13.6161C15.0163 13.6855 14.9557 13.7457 15.0268 13.8179C15.0416 13.8326 15.1812 13.8483 15.2057 13.8553C15.4039 13.9123 15.0616 13.9152 15.0357 13.9229C14.8423 13.9802 14.9052 14.0504 14.8899 14.1255C14.8863 14.1431 15.0753 14.1463 15.0784 14.1641C15.0922 14.256 15.063 14.345 14.9686 14.4213C14.9472 14.4383 14.792 14.4009 14.7737 14.4081C14.695 14.4402 14.9914 14.4857 14.9217 14.5167C14.9074 14.5233 14.7733 14.5021 14.7583 14.5018C14.5228 14.497 14.8492 14.5578 14.8555 14.5647C14.9441 14.6531 14.5947 14.6613 14.6336 14.7412C14.6386 14.7508 14.8109 14.7509 14.8144 14.7766C14.8388 14.9481 14.7682 15.1185 14.613 15.2687C14.5891 15.2922 14.4657 15.2597 14.45 15.2596C14.2045 15.2587 14.527 15.312 14.5381 15.3217C14.6173 15.3974 14.3389 15.4297 14.7175 15.5166C14.6703 15.5908 14.6503 15.6662 14.6376 15.7444C14.6061 15.937 14.6268 16.1285 14.3693 16.3094C14.3652 16.3126 14.2107 16.2975 14.2031 16.3041C14.1108 16.3828 14.3526 16.3808 14.6417 16.4483C14.7141 16.4649 14.3578 16.4907 14.3318 16.4937C14.2357 16.5033 14.0076 16.4798 13.9889 16.4836C13.8425 16.5165 14.5988 16.5399 14.5956 16.5892C14.5943 16.5908 14.4558 16.5794 14.4418 16.5832C14.3977 16.5949 14.4521 16.6097 14.4037 16.621C14.2917 16.6469 13.9263 16.6477 14.1372 16.6996C14.1645 16.7061 14.5906 16.7076 14.5681 16.7515C14.5588 16.7693 14.5625 16.847 14.5343 16.8693C14.5061 16.8911 14.3706 16.8747 14.3647 16.8762C14.1832 16.9353 14.1094 16.9119 13.8435 16.9419C13.5792 16.9726 14.2097 16.9652 14.2798 16.9775C14.3496 16.9898 14.2013 17.0348 14.1502 17.0463C14.0989 17.0576 14.0132 17.0442 13.9842 17.0543C13.7955 17.1217 14.2955 17.0807 14.3946 17.1008C14.6288 17.1468 14.1651 17.1924 14.1209 17.2401C14.1089 17.2529 14.2137 17.2405 14.2236 17.2513C14.2613 17.2937 14.1186 17.3252 14.2504 17.3708C14.2721 17.3786 14.5469 17.4081 14.346 17.4417C14.3171 17.4466 14.2032 17.4403 14.1783 17.4602C14.1408 17.49 14.1179 17.5413 14.1568 17.57C14.1855 17.5911 14.3703 17.5564 14.3135 17.5871C14.2881 17.6009 14.1788 17.5832 14.1404 17.6087C14.1021 17.6345 14.1097 17.693 14.1146 17.7162C14.1196 17.7389 14.2585 17.7178 14.268 17.7191C14.3224 17.727 14.3913 17.7654 14.3912 17.769C14.4146 17.9567 14.1975 18.1544 14.291 18.3348C14.298 18.3489 14.438 18.3231 14.4405 18.3251C14.5038 18.3681 14.126 18.3717 14.005 18.4218C14.2894 18.3835 14.2398 18.4095 14.2747 18.4417C14.2917 18.4571 14.4005 18.4342 14.412 18.4344C14.5809 18.439 14.3674 18.4829 14.3242 18.4931C14.1646 18.5304 14.3571 18.5236 14.2508 18.5494C14.1455 18.575 13.9838 18.5687 13.9906 18.6034C14.0923 18.5998 14.3522 18.5397 14.3976 18.5598C14.5675 18.6336 14.3843 18.8417 14.376 18.9234C14.3666 19.0053 14.3881 19.0263 14.3604 19.078C14.3107 19.1702 14.4919 19.1082 14.5836 19.1418C14.6751 19.1762 14.2192 19.2371 14.1231 19.2627C14.0274 19.2884 14.1289 19.2775 14.0773 19.2967C14.0259 19.3159 13.9559 19.3088 13.9403 19.3339C13.9248 19.3583 14.109 19.3853 14.2105 19.3718C14.4261 19.3449 14.6448 19.2751 14.5756 19.346C14.5715 19.3501 14.4527 19.3634 14.4431 19.3779C14.4063 19.4351 14.3924 19.4914 14.3795 19.5448C14.3668 19.5973 14.3564 19.6511 14.3289 19.7077C14.3211 19.7234 14.1927 19.7411 14.1868 19.7507C14.1266 19.8513 14.3311 19.7719 14.5735 19.7577C14.2615 19.8247 14.0779 19.8961 14.0937 19.9592C14.103 19.997 14.2348 19.9558 14.3348 19.9549C14.3649 19.9546 14.2807 20.0046 14.3442 19.9926C14.5516 19.9531 14.7731 19.8676 14.6969 19.9533C14.6932 19.9572 14.5805 19.979 14.5761 19.9902C14.5479 20.0634 14.7595 20.011 14.7997 20.0683C14.8312 20.1135 14.7286 20.2405 14.725 20.3052C14.4007 20.4036 14.4929 20.4365 14.7198 20.3893C14.7215 20.4302 14.7453 20.4666 14.726 20.5129C14.7195 20.5288 14.6259 20.5501 14.6165 20.5549C14.4698 20.6295 14.6858 20.5775 14.6962 20.5829C14.8018 20.6447 14.6689 20.7696 14.8461 20.8022C14.8525 20.8033 15.0633 20.7359 14.9173 20.8112C14.9073 20.8163 14.8033 20.8214 14.8085 20.8636C14.8132 20.9056 14.7282 21.0193 14.8411 21.0407C14.8685 21.0459 15.0429 21.0208 14.9237 21.0937C14.9076 21.1035 14.8485 21.1203 14.8182 21.1371C14.722 21.1906 14.9275 21.1267 14.7626 21.2085C14.5977 21.2902 14.4874 21.3774 14.6255 21.3899C14.6296 21.3904 14.7915 21.3458 14.7952 21.3641C14.8011 21.3933 14.7833 21.4446 14.7951 21.4731C14.8008 21.4868 14.893 21.4424 14.8957 21.4441C14.982 21.5175 14.921 21.6155 14.9232 21.7284C14.9238 21.7491 15.0666 21.7545 14.9823 21.8271C14.8911 21.9064 14.4341 22.0356 14.5789 22.0829C14.6386 22.1017 15.2008 21.9366 14.945 22.1096C15.0623 22.2076 14.9716 22.3762 15.1157 22.4639C15.1221 22.4678 15.2692 22.4312 15.2721 22.4454C15.2762 22.4665 15.2154 22.5025 15.2166 22.5182C15.22 22.5842 15.2954 22.6175 15.3081 22.6774C15.3132 22.7001 15.2458 22.7174 15.2524 22.7446C15.2592 22.7716 15.3495 22.7565 15.3224 22.8068C15.3015 22.8448 15.1436 22.9358 15.1395 22.9773C15.3047 22.9155 15.3109 22.9407 15.37 22.9665C15.3814 22.9715 15.4346 22.9412 15.4428 22.9425C15.4776 22.9473 15.4365 22.98 15.4733 22.9832C15.4822 22.984 15.537 22.9634 15.5473 22.9629C15.6363 22.9584 15.5281 23.0471 15.5099 23.062C15.44 23.1201 15.5145 23.1068 15.4909 23.1399C15.4676 23.1727 15.4169 23.1557 15.4075 23.1873C15.388 23.2518 15.4227 23.3148 15.4398 23.3663C15.4472 23.3872 15.5096 23.3483 15.5122 23.3508C15.5449 23.3882 15.4903 23.4563 15.6302 23.4329C15.3013 23.5843 15.6726 23.4477 15.6253 23.5338C15.6215 23.5406 15.4667 23.6016 15.4363 23.5917C15.4058 23.582 15.4446 23.5367 15.3977 23.5242C15.3869 23.5208 15.2211 23.5422 15.2094 23.5411C15.1203 23.5322 15.3629 23.4381 15.3757 23.4311C15.5127 23.3557 15.3297 23.3747 15.3128 23.3684C15.238 23.3384 15.2549 23.2826 15.1975 23.256C15.1602 23.2383 14.9887 23.2996 14.9833 23.2767C14.9647 23.2022 15.199 23.0831 14.9542 23.0988C14.9017 23.1022 14.714 23.1908 14.8413 23.0821C14.849 23.0755 14.9722 22.9828 14.8716 22.9962C14.8589 22.9979 14.801 23.0202 14.7943 23.0186C14.7503 23.007 14.7885 22.9733 14.7526 22.9558C14.7165 22.9382 14.6661 22.9205 14.6706 22.8831C14.6731 22.8606 14.7734 22.7939 14.7969 22.7744C14.8646 22.7186 14.7206 22.7438 14.8104 22.6907C14.9015 22.637 15.0635 22.6097 15.11 22.5437C14.9493 22.6045 14.7833 22.6649 14.6207 22.7253C14.5804 22.6359 14.5895 22.5289 14.5376 22.4433C14.531 22.4328 14.4459 22.4792 14.4363 22.4689C14.3954 22.425 14.4389 22.3568 14.3859 22.3153C14.3446 22.2833 14.2216 22.2785 14.1733 22.2468C14.3631 22.143 14.2629 22.1074 14.2585 22.0548C14.257 22.0364 14.3133 22.0162 14.3259 21.9979C14.3726 21.9294 14.1969 22.02 14.1617 22.0194C14.0101 22.017 14.4315 21.8521 14.3943 21.796C14.3928 21.7929 14.1449 21.8404 14.1275 21.8406C14.017 21.8419 14.205 21.8049 14.2118 21.7773C14.2243 21.7268 14.268 21.6789 14.1777 21.6587C14.1513 21.6529 13.9878 21.6755 14.0899 21.6073C14.1034 21.5984 14.183 21.5713 14.1864 21.5669C14.2408 21.4887 13.9914 21.5784 13.8922 21.5809C13.7928 21.5833 13.9451 21.4762 13.9917 21.4489C14.1115 21.3782 14.0558 21.4469 14.0692 21.4435C14.228 21.4036 14.1875 21.3807 14.1896 21.3513C14.4376 21.2581 14.4091 21.2288 14.1909 21.3212C14.1672 21.3314 14.1989 21.3423 14.1896 21.3513C13.9355 21.4176 13.8836 21.3909 14.0975 21.2665C14.1979 21.2081 14.3331 21.1819 14.2621 21.1382C14.2299 21.1183 14.0577 21.1906 13.9989 21.1834C13.8639 21.1668 13.9993 21.0368 13.9494 20.9886C13.9309 20.971 13.8399 21.025 13.8236 21.014C13.7799 20.9851 13.841 20.9264 13.7862 20.901C13.781 20.8987 13.6787 20.9421 13.6721 20.9306C13.6199 20.8435 13.6553 20.7417 13.6187 20.6446C13.601 20.5978 13.5062 20.5318 13.4994 20.4788C13.4863 20.3866 13.6152 20.2342 13.5497 20.1716C13.5069 20.1297 13.3938 20.1709 13.3066 20.1703C13.1366 20.1687 13.3902 20.0249 13.4313 20.0047C13.4327 20.0041 13.4744 20.0401 13.5279 20.0022C13.6505 19.9578 13.4321 20.0051 13.4313 20.0047C13.4571 19.9912 13.4578 19.8996 13.4298 19.8876C13.4144 19.8811 13.302 19.9126 13.2961 19.9086C13.247 19.875 13.2069 19.8388 13.1767 19.8002C13.1229 19.7363 13.1007 19.6634 13.1152 19.5817C13.117 19.5792 13.2499 19.5561 13.2525 19.5507C13.2935 19.473 13.1201 19.4623 13.0073 19.4246C12.8947 19.3872 12.9144 19.3361 13.1392 19.2627C13.0992 19.225 13.1883 19.1488 13.2439 19.1037C13.2997 19.0598 13.0306 19.0978 13.0245 19.0956C12.8316 19.0261 12.9724 18.9467 12.9759 18.844C12.9778 18.7953 12.9186 18.7058 12.878 18.6587C12.8454 18.6209 12.9059 18.5876 12.8569 18.5556C12.8504 18.5512 12.7268 18.5709 12.7217 18.5699C12.5642 18.5448 12.8731 18.5299 12.9259 18.515C13.1184 18.4609 13.2216 18.43 13.1193 18.3879C13.0961 18.3783 12.6465 18.3885 12.6159 18.3674C12.5774 18.3405 12.7391 18.3362 12.695 18.309C12.6913 18.3066 12.5928 18.3168 12.5937 18.297C12.5965 18.2043 12.6387 18.1013 12.6149 18.0092C12.612 17.9965 12.455 18.0249 12.4481 18.0065C12.4155 17.9193 12.4071 17.8222 12.472 17.733C12.4885 17.7109 12.6037 17.718 12.6368 17.7117C12.8377 17.6735 12.5364 17.6491 12.5298 17.6425C12.3674 17.4926 12.6275 17.3623 12.4845 17.2071C12.4764 17.1991 12.1437 17.1343 12.4221 17.1019C12.4405 17.0994 12.7262 17.0684 12.5277 17.0434C12.5153 17.0417 12.3683 17.061 12.3812 17.0284C12.3941 16.9957 12.291 16.9433 12.4524 16.8997C12.5031 16.8856 12.7913 16.856 12.5585 16.8115C12.5426 16.8093 12.0152 16.7355 12.376 16.7185C12.4354 16.7158 12.8188 16.7276 12.6207 16.6738C12.5822 16.6634 12.4972 16.6789 12.4428 16.6522C12.3589 16.611 12.4606 16.5637 12.2875 16.5098C12.2569 16.5007 11.9933 16.4542 12.1918 16.4331C12.223 16.4298 12.3523 16.4434 12.3665 16.429C12.4347 16.3614 12.3474 16.2807 12.4375 16.214C12.4692 16.1903 12.6797 16.2153 12.7365 16.1925C12.7933 16.1697 12.849 16.1205 12.7531 16.0871C12.6571 16.0533 12.3195 16.0608 12.2931 16.0168C12.184 15.8321 12.3632 15.6735 12.4174 15.505C12.4202 15.4968 12.4226 15.4887 12.4245 15.4805C12.4303 15.4566 12.3068 15.4636 12.3064 15.4274C12.3045 15.2952 12.2011 15.0533 12.4728 14.9681C12.6908 14.9004 12.8432 15.0336 12.9347 14.9737C12.9787 14.9452 12.5772 14.8621 12.565 14.8524C12.4414 14.7577 12.6252 14.7227 12.5758 14.6444C12.5655 14.6282 12.3996 14.6235 12.3926 14.61C12.3672 14.5638 12.4445 14.5259 12.4344 14.4832C12.4294 14.4639 12.3028 14.4523 12.3139 14.4364C12.339 14.3979 12.3951 14.3675 12.5172 14.3422C12.5284 14.3399 12.6837 14.3832 12.6923 14.3539C12.7056 14.3062 12.8288 14.2593 12.7129 14.1885C12.678 14.1672 12.3875 14.1304 12.5916 14.1191C12.6342 14.1168 12.9824 14.1699 12.6848 14.0904C12.6355 14.0775 12.2347 13.9548 12.5008 13.9533C12.5708 13.9528 12.8596 13.9662 12.8167 13.9404C12.8097 13.9368 12.652 13.9276 12.6384 13.909C12.5934 13.8426 12.6164 13.7839 12.5738 13.7157C12.5621 13.6976 12.3971 13.7005 12.3848 13.6741C12.3506 13.6021 12.4011 13.523 12.4596 13.4645C12.4815 13.4428 12.6145 13.4782 12.6294 13.4784C12.8717 13.4831 12.5511 13.4219 12.5334 13.4098C12.4275 13.3361 12.5846 13.3117 12.551 13.2525C12.5422 13.2361 12.3869 13.2246 12.3735 13.2196C12.2431 13.1691 12.5169 13.2321 12.5498 13.2169C12.6431 13.1745 12.6386 13.1121 12.6262 13.0536C12.6215 13.0322 12.4396 13.0283 12.4374 13.0093C12.4209 12.8956 12.4538 12.7845 12.5684 12.6933C12.5903 12.6762 12.7263 12.7111 12.7584 12.712C12.983 12.7193 12.689 12.6283 12.6619 12.6136C12.538 12.5476 12.6625 12.5511 12.6461 12.5077C12.563 12.2967 12.6861 12.0706 12.772 11.8973C12.7804 11.8801 12.7893 11.863 12.7984 11.8463C12.8688 11.7181 12.9571 11.6106 13.0189 11.4939C13.0622 11.3915 13.0952 11.3089 13.114 11.2182C13.1178 11.2008 12.9349 11.1677 12.9362 11.1518C12.9603 10.9511 13.0993 10.8083 13.1296 10.6308C13.1326 10.616 12.9631 10.5791 12.9629 10.5533C12.961 10.5013 12.9995 10.4491 13.0735 10.4245C13.1092 10.4122 13.2281 10.4904 13.2611 10.4772C13.3373 10.4481 13.3763 10.4011 13.3799 10.3429C13.3813 10.3178 13.2061 10.2884 13.2204 10.2609C13.3139 10.0721 13.4146 9.88974 13.7254 9.80359C13.7469 9.79773 14.0415 9.91504 14.0034 9.86613C13.9255 9.82896 13.8322 9.78751 13.7482 9.74895C13.8834 9.49903 14.1616 9.32584 14.3808 9.12986C14.3912 9.11863 14.4023 9.10617 14.4118 9.09678C14.4231 9.08548 14.2828 9.04175 14.3048 9.01931C14.426 8.89973 14.5067 8.80587 14.726 8.77465C14.7474 8.77162 14.9231 8.88142 14.9264 8.83825C14.9267 8.83058 14.9499 8.7764 14.9252 8.74451C14.9214 8.73987 14.8315 8.6997 14.8456 8.68599C14.9286 8.60733 15.0509 8.54665 15.1892 8.50239C15.2115 8.49536 15.267 8.55061 15.283 8.54579C15.3938 8.50896 15.4276 8.41616 15.5568 8.3949C15.6412 8.38015 15.7248 8.45689 15.8428 8.49676C15.8596 8.50178 15.8853 8.4774 15.9406 8.51033C16.0786 8.59389 16.2207 8.70503 16.3694 8.79259C16.394 8.80688 16.3859 8.77146 16.4121 8.78878C16.4121 8.78878 16.4121 8.78879 16.4121 8.78879C16.4198 8.79385 16.4306 8.80333 16.4465 8.82018C16.4511 8.825 16.4704 8.87378 16.4958 8.89887C16.5133 8.91631 16.5707 8.94168 16.5933 8.96876C16.6163 8.99607 16.5673 8.97833 16.5942 9.01675C16.6223 9.0551 16.69 9.08881 16.6992 9.13615ZM13.4962 18.9063C13.6205 18.8555 13.1423 18.9217 13.2636 18.9393C13.27 18.94 13.4902 18.9089 13.4962 18.9063ZM14.8127 22.4425C14.9272 22.3556 14.723 22.4059 14.6337 22.4706C14.5454 22.5348 14.7785 22.4688 14.8127 22.4425ZM15.0719 22.7822C15.1498 22.7027 14.7544 22.8482 14.8554 22.8618C14.8612 22.8626 15.0675 22.7868 15.0719 22.7822ZM15.7795 8.62043C15.7828 8.62186 15.8016 8.60459 15.7992 8.60229C15.7391 8.54944 15.6987 8.58294 15.7795 8.62043ZM15.3219 23.1218C15.3652 23.0901 15.2935 23.073 15.2394 23.1126C15.1962 23.1443 15.2685 23.1609 15.3219 23.1218ZM13.862 17.2468C13.8699 17.2462 13.8766 17.2285 13.8319 17.2297C13.6879 17.2337 13.7293 17.2577 13.862 17.2468ZM15.5733 23.7642C15.5483 23.6651 15.7934 23.5154 15.795 23.6334C15.7957 23.6546 15.7002 23.6194 15.6845 23.6519C15.6574 23.7107 15.8259 23.6887 15.7545 23.7624C15.742 23.7754 15.5747 23.7697 15.5729 23.7641C15.573 23.7641 15.5732 23.7642 15.5733 23.7642ZM14.0654 18.8025C14.0716 18.801 14.074 18.7757 14.0677 18.7761C13.9139 18.7851 13.9096 18.8366 14.0654 18.8025ZM14.2226 16.2371C14.2382 16.2367 14.2571 16.1826 14.2428 16.18C13.9564 16.1311 13.9186 16.2432 14.2226 16.2371ZM14.7166 20.3088C14.8509 20.2944 14.8726 20.3192 14.7199 20.3891C14.7213 20.3615 14.7156 20.3361 14.7166 20.3088Z" fill="#52524F"/>
<path d="M17.1046 1.50191C16.7437 1.56839 16.3083 1.63153 15.8864 1.67756C15.6983 1.70127 15.4762 1.73925 15.2738 1.77203C15.1007 1.80053 15.1795 1.72627 15.0577 1.74341C14.8772 1.76885 14.7065 1.8206 14.5274 1.85694C14.467 1.86907 14.4062 1.87922 14.3444 1.88587C14.2615 1.89433 14.3496 1.78167 14.2631 1.79202C13.8173 1.84533 13.3799 1.93978 13.035 2.02168C13.0151 2.02648 12.9953 2.03113 12.9752 2.03573C12.6741 2.10522 12.3583 2.16847 12.0545 2.22006C11.775 2.26478 11.3975 2.49596 10.9167 2.81358C10.4767 3.08128 10.1296 3.20893 9.98947 3.31967C9.71596 3.51257 9.49711 3.6333 9.29752 3.76252C8.94289 3.98673 8.7005 4.17341 8.33677 4.47745C8.00645 4.74383 7.69512 4.98261 7.41299 5.22363C7.35236 5.27552 7.29158 5.32721 7.23593 5.37582C7.00344 5.5837 6.72253 5.78581 6.42207 5.95136C6.13476 6.11028 5.77193 6.26705 5.79189 6.27051C5.61786 6.41388 5.4518 6.54828 5.30619 6.67998C5.23559 6.74393 5.35819 6.81357 5.35041 6.83329C5.22894 7.13818 5.14505 6.86855 4.98323 6.95034C4.90273 6.99115 4.82309 7.03412 4.74407 7.07956C4.38694 7.27801 3.93605 7.64231 3.76085 7.85171C3.75103 7.87664 3.75623 7.87923 3.73964 7.99341C3.71559 8.21227 4.03003 8.03854 3.83239 8.25652C3.81871 8.27352 3.68763 8.17565 3.65852 8.24771C3.65441 8.25797 3.6504 8.26904 3.64645 8.28099C3.5779 8.49862 3.54756 8.76296 3.52047 8.88163C3.46198 9.12184 3.45936 9.16405 3.4336 9.40534C3.42409 9.49561 3.40984 9.59073 3.39451 9.68951C3.35741 9.91402 3.32329 10.2092 3.34973 10.4764C3.3581 10.5555 3.51264 10.4511 3.5404 10.5771C3.568 10.7023 3.56086 11.0412 3.52598 11.1576C3.49104 11.2739 3.36699 11.2253 3.33909 11.2461C3.10343 11.4151 3.43765 11.8185 3.44532 11.8746C3.45546 11.9465 3.46345 12.0183 3.4691 12.0912C3.52785 12.9168 3.38914 13.6108 3.16969 14.5022C3.15914 14.5391 3.14919 14.5799 3.14019 14.6229C3.06863 14.9659 3.04519 15.387 2.97717 15.8431C2.96109 15.9824 2.95296 16.2354 2.93696 16.4653C2.9366 16.4704 2.93624 16.4756 2.93587 16.4807C2.92272 16.6614 2.90559 16.8444 2.87826 17.0377C2.8069 17.5169 2.74255 18.0446 2.69988 18.6151C2.69381 18.6953 2.89072 18.6189 2.88348 18.7172C2.87896 18.7773 2.87408 18.8368 2.8687 18.8971C2.81711 19.538 2.75575 20.2502 2.87516 20.4018C2.95482 20.5877 3.05732 20.8104 3.14794 21.0212C3.18661 21.1106 2.98058 21.0891 3.01106 21.1839C3.07138 21.367 3.13599 21.5916 3.22205 21.797C3.38285 22.2027 3.77279 22.5862 4.2878 22.418C4.28787 22.4181 4.28794 22.4182 4.28801 22.4183C4.57639 22.7576 4.75266 23.0421 4.89929 23.3109C4.9341 23.3744 4.96628 23.4388 4.99321 23.5028C5.09093 23.7315 4.80496 23.7011 5.0628 23.8472C5.12093 23.8801 5.17043 23.7091 5.24899 23.7664C5.44817 23.9113 5.63441 24.0946 5.82051 24.2487C5.92903 24.3376 6.04279 24.4108 6.16794 24.4562C6.23285 24.4791 6.29362 24.3507 6.32249 24.3394C6.53947 24.2392 6.66041 24.6856 6.74618 24.7693C6.76331 24.7867 6.78097 24.8044 6.79893 24.8224C7.04129 25.1325 7.38215 25.2943 7.71604 25.4829C7.78649 25.5221 7.85789 25.5618 7.93123 25.6043C8.02865 25.6605 8.0051 25.4321 8.10099 25.4794C8.30976 25.5831 8.51728 25.6852 8.73787 25.7994C9.03512 25.9537 9.32986 26.1184 9.60287 26.2861C9.70766 26.3505 9.54343 26.454 9.59095 26.4924C9.75993 26.6256 9.899 26.4858 10.0352 26.4896C10.0685 26.4901 10.1064 26.5008 10.1477 26.5276C10.1912 26.5552 10.1243 26.6765 10.1286 26.6935C10.2026 26.9617 10.4257 26.6802 10.4639 26.6836C10.9634 26.7201 11.1932 27.1337 11.6761 27.1896C11.7334 27.1956 11.6434 27.0017 11.8009 27.0282C11.9123 27.0464 12.0237 27.0645 12.1329 27.0812C12.5388 27.1287 13.137 27.1538 13.6639 27.1983C14.1483 27.2357 14.6187 27.3048 15.0697 27.3903C15.24 27.4224 15.1094 27.5406 15.1191 27.5569C15.2788 27.8117 15.4134 27.4935 15.4693 27.485C15.6531 27.4605 15.827 27.4975 15.9857 27.5199C16.2028 27.5506 16.4164 27.5504 16.5845 27.3245C16.9241 27.3494 17.2701 27.3556 17.6053 27.3472C18.1947 27.3351 18.6148 27.2554 19.3094 27.1355C19.5073 27.1151 19.7102 27.0497 19.9851 26.9542C20.3223 26.8359 20.7861 26.5865 21.2564 26.409C21.3845 26.3633 21.516 26.3131 21.653 26.2614C21.6748 26.2527 21.72 26.4068 21.7633 26.3888C22.1647 26.2212 22.1351 26.0971 22.2266 25.8398C22.25 25.7621 22.2832 25.6719 22.3557 25.5654C22.4373 25.4471 22.882 25.678 22.9074 25.7024C23.0307 25.7695 22.9847 26.0174 23.0217 26.0271C23.2986 26.1128 23.1185 25.3722 23.5128 25.3243C23.5246 25.3243 23.4906 25.4676 23.5233 25.478C23.625 25.5109 23.7156 25.4482 23.8126 25.4898C23.8628 25.5116 23.9051 25.5474 23.946 25.5868C24.0708 25.7215 24.1904 25.9002 24.3925 25.7059C24.4216 25.6714 24.3149 25.2667 24.5445 25.2342C24.605 25.2262 24.8082 25.162 24.9974 25.0928C25.0661 25.0698 25.1406 25.0377 25.1829 25.0259C25.3068 24.9895 25.298 25.1493 25.3081 25.1507C25.722 25.116 25.6434 25.2458 25.9591 25.3584C26.2783 25.4628 25.8779 24.9718 25.9084 24.8668C25.937 24.7622 26.2842 24.7113 26.384 24.7186C26.4801 24.725 26.4327 24.8475 26.5073 24.8409C26.5093 24.8407 26.5113 24.8406 26.5133 24.8405C26.9758 24.7913 26.5098 24.4815 26.563 24.3337C26.6556 23.9896 27.1433 24.1744 27.4134 24.0092C27.486 23.9645 27.3653 23.9283 27.4173 23.8724C27.5724 23.7074 27.7407 23.6663 27.8941 23.5226C27.9432 23.4764 27.9877 23.4203 28.0278 23.3441C28.0588 23.2908 28.0556 22.9302 28.3021 22.9607C28.3387 22.9639 28.3768 23.0903 28.4749 23.0217C28.6238 22.9219 28.8274 22.6741 28.8965 22.481C28.9496 22.3397 28.7014 22.3903 28.8489 22.2586C28.915 22.1997 28.9263 22.3897 29.0427 22.2747C29.0821 22.2358 29.1323 22.1705 29.1863 22.0966C29.2907 21.9538 29.4046 21.7784 29.4581 21.6935C29.5387 21.5655 29.3762 21.5572 29.3751 21.5418C29.3718 21.4501 29.4718 21.1753 29.4842 21.1552C29.5817 20.9981 29.6793 20.8447 29.7551 20.7071C29.9711 20.3085 30.199 19.9191 30.4744 19.5389C30.6615 19.3043 30.7805 18.9319 30.9505 18.5762C31.0515 18.3573 31.1464 18.1358 31.2246 17.909C31.2562 17.8175 31.1002 17.8237 31.1037 17.8092C31.1686 17.487 31.4255 17.8646 31.6259 17.6875C31.3507 17.6268 31.4442 17.5099 31.46 17.3263C31.4607 17.3184 31.4613 17.3105 31.4619 17.3026C31.4708 17.1847 31.3494 17.2252 31.3406 17.2122C31.2108 17.019 31.4364 16.9645 31.4849 16.937C31.6609 16.8517 31.4802 16.7145 31.5937 16.6496C31.7061 16.5809 31.8542 16.7689 31.8662 16.5386C31.7684 16.4705 31.4945 16.6208 31.461 16.4506C31.4255 16.2749 31.4153 16.0574 31.4181 15.8206C31.4295 15.5839 31.3774 15.3221 31.3746 14.966C31.3809 14.6267 31.3832 14.3082 31.3682 14.104C31.3658 14.073 31.3635 14.0435 31.361 14.0155C31.3065 13.6485 31.2023 13.4601 31.1567 13.1724C31.1476 13.1205 31.1388 13.0749 31.1301 13.0348C31.0506 12.646 30.93 12.824 30.7784 12.5464C30.6102 12.2436 31.0951 12.2792 31.1779 12.2055C31.2601 12.1321 31.1477 12.1081 31.1832 12.0349C31.2186 11.9619 31.3196 12.0696 31.2994 11.9266C31.296 11.9033 31.2862 11.8762 31.2711 11.8451C31.193 11.6848 30.978 11.4568 30.8834 11.4428C30.6446 11.4069 30.4807 11.6423 30.4444 11.2618C30.4423 11.2399 30.5771 11.2698 30.5635 11.1875C30.523 10.9501 30.4676 10.714 30.4158 10.4682C30.3467 10.1672 30.3214 9.85391 30.1906 9.63864C30.1179 9.52242 30.072 9.40489 30.0301 9.29024C29.9993 9.20369 30.1512 9.21883 30.1348 9.16834C30.0203 8.80953 29.9295 8.82029 29.7777 8.81806C29.7057 8.817 29.6195 8.81315 29.508 8.77074C29.8184 8.67446 29.9099 8.42495 29.6845 8.07005C29.5551 7.86151 29.4616 7.97041 29.2976 7.87856C29.297 7.87817 29.2963 7.87778 29.2956 7.87738C29.2469 7.84917 29.2417 7.64929 29.1694 7.65373C28.9338 7.66801 28.8164 7.93174 28.6816 7.51673C28.6758 7.49816 28.805 7.49143 28.7778 7.43155C28.7066 7.27465 28.6295 7.18822 28.5471 7.11421C28.4313 7.01858 28.3087 6.96486 28.1566 6.78105C28.0361 6.63538 27.8481 6.34342 27.6964 6.04865C27.6086 5.87621 27.5199 5.71073 27.4355 5.58408C27.7138 5.38838 27.413 5.1261 27.1404 5.16723C27.0893 5.10249 27.0336 5.03911 26.9769 4.97906C26.8436 4.83849 26.7215 4.69054 26.6291 4.54378C26.5816 4.46856 26.6923 4.45268 26.6933 4.43748C26.7115 4.20293 26.4685 4.25752 26.4276 4.22391C26.3589 4.16477 26.2955 4.1077 26.242 4.06805C25.9485 3.84455 25.7011 3.60473 25.3878 3.41159C25.2986 3.35766 25.202 3.31504 25.0944 3.28667C25.073 3.28094 24.9422 3.45871 24.8893 3.24464C24.8851 3.22978 25.1015 3.23354 24.8657 3.09562C24.7746 3.04235 24.6523 2.95454 24.5248 2.84769C24.3504 2.69542 24.0953 2.55772 23.8576 2.52787C23.7638 2.51468 23.4888 2.59708 23.3523 2.39277C23.3347 2.36519 23.3857 2.32044 23.3638 2.27378C23.3609 2.26748 23.3579 2.26177 23.3548 2.25658C23.2858 2.13975 23.1586 2.28918 23.1038 2.08026C23.0467 1.8607 22.7869 1.63521 22.3766 1.67146C22.3651 1.67221 22.262 1.78606 22.157 1.7907C22.1443 1.79122 22.1316 1.79013 22.1189 1.78706C21.9284 1.74157 21.672 1.63357 21.4795 1.57176C21.387 1.54232 21.4143 1.65838 21.3977 1.65493C21.1789 1.60346 20.9878 1.53367 20.81 1.46904C20.4677 1.35013 20.1178 1.24857 19.6664 1.15803C19.5563 1.13583 19.2491 1.19683 19.0184 1.11575C18.9854 1.10419 18.9556 1.09037 18.9265 1.07315C18.6708 0.929156 19.0149 0.477096 18.3394 0.546544C18.1229 0.570895 17.8835 0.951947 17.5656 0.93053C17.4808 0.924174 17.3927 0.893787 17.2985 0.825496C17.0589 0.83453 16.8287 0.830581 16.5985 0.817148C15.9715 0.786394 15.3617 0.743056 14.7177 0.825665C14.706 0.827212 14.685 0.842691 14.6611 0.86331C14.6049 0.909961 14.5275 0.983384 14.4639 0.984162C14.327 0.985702 14.2481 0.921038 14.1489 0.924463C13.7333 0.937103 13.3734 1.07603 12.985 1.15966C12.8435 1.19067 12.8692 1.11912 12.7169 1.14794C12.7101 1.14924 12.7029 1.15072 12.6953 1.1524C12.5215 1.1899 12.417 1.3014 12.1667 1.29071C11.9768 1.28174 11.7824 1.1166 11.5313 1.12112C11.5364 1.23695 11.465 1.27998 11.3334 1.32589C11.2642 1.35082 11.1792 1.37832 11.0816 1.41765C11.0276 1.4396 11.1016 1.48413 11.0769 1.49749C10.9777 1.55287 10.8666 1.53048 10.7734 1.58982C10.7508 1.60413 10.7648 1.66106 10.7471 1.67589C10.6278 1.77846 10.3947 1.76664 10.2744 1.7455C10.2572 1.738 10.2394 1.73478 10.2305 1.7332C10.0393 1.72157 9.99313 1.85421 9.85325 1.90224C9.71091 1.95481 9.87381 1.79998 9.71822 1.87671C9.68299 1.89397 9.64704 1.91219 9.61045 1.93105C9.31352 2.08302 8.96305 2.27553 8.67712 2.42856C8.54909 2.49719 8.67048 2.51355 8.65296 2.52485C8.39739 2.68235 8.09457 2.76487 8.01981 2.96898C7.88802 2.89164 7.83367 2.88844 7.79831 2.92153C7.73675 2.98387 7.73962 3.14794 7.49109 3.26385C7.46021 3.27811 7.32921 3.16636 7.42263 3.07103C7.49618 2.99621 7.63145 2.93768 7.75093 2.85332C7.78981 2.82834 7.82205 2.80461 7.85156 2.77766C7.88376 2.74819 8.01898 2.48448 8.04377 2.45896C8.23657 2.26 8.3936 2.47184 8.41263 2.47771C8.62418 2.53851 8.80254 2.24058 8.86493 2.19127C9.09402 2.01333 9.32088 1.90428 9.50982 1.76931C9.5582 1.73466 9.60465 1.69822 9.64954 1.65841C9.80054 1.5273 9.70299 1.36642 9.88515 1.26727C9.95586 1.23179 10.0398 1.19347 10.1663 1.17433C10.5107 1.14952 10.7521 1.25451 11.1584 0.955117C11.2174 0.915184 11.1968 0.841351 11.2485 0.797113C11.2925 0.76168 11.3867 0.746158 11.5627 0.800822C11.5896 0.80756 11.877 0.932472 12.0143 0.81688C12.0317 0.802297 12.0237 0.740792 12.0474 0.732258C12.204 0.675689 12.3162 0.707352 12.4751 0.646393C12.5098 0.63281 12.5452 0.617873 12.581 0.602206C12.7346 0.540226 12.9061 0.475545 13.0847 0.449282C13.2225 0.42835 13.4251 0.507616 13.4966 0.524298C13.6974 0.571288 13.886 0.402469 14.0171 0.493573C14.144 0.587027 13.9352 0.765247 14.2386 0.808835C14.2379 0.636681 14.2532 0.458673 14.2619 0.284528C14.3944 0.275814 14.5238 0.27261 14.6519 0.272531C15.1737 0.272772 15.6915 0.294088 16.2284 0.286011C16.3113 0.284788 16.2276 0.187401 16.317 0.183575C16.4207 0.179379 16.5225 0.182384 16.626 0.190086C16.8755 0.209923 17.1026 0.243854 17.398 0.23448C17.4728 0.232449 17.5542 0.227464 17.6363 0.222041C17.8149 0.196281 18.0444 0.121157 18.308 0.107179C18.466 0.285751 18.8236 0.29448 19.1375 0.337952C19.2022 0.346323 19.2669 0.354894 19.3274 0.366383C19.4382 0.387194 19.4226 0.44527 19.5007 0.474595C19.7975 0.584308 19.6815 0.370018 19.7708 0.349466C20.1614 0.264741 20.1247 0.710775 20.5708 0.783534C20.5902 0.785205 20.9526 0.615923 21.0111 0.61927C21.0369 0.618316 21.0589 0.618389 21.0775 0.619223C21.2755 0.625026 21.0522 0.721415 21.1916 0.783957C21.4524 0.904902 21.6019 1.02184 21.9115 1.03124C21.9926 1.03368 22.1869 0.95173 22.3174 1.0367C22.3378 1.04806 22.3568 1.06204 22.3743 1.07911C22.3955 1.09978 22.3642 1.17901 22.3832 1.18797C22.7268 1.34595 22.799 1.09334 23.0479 1.06572C23.2996 1.03552 23.6167 1.35766 23.6413 1.43068C23.7403 1.62421 23.4957 1.43242 23.4709 1.43864C23.3213 1.52521 23.4899 1.5938 23.6196 1.65711C23.6391 1.6665 23.6619 1.67699 23.6839 1.68806C23.601 1.94121 23.8342 2.01331 23.8378 1.76103C23.8373 1.73326 23.7066 1.71039 23.6839 1.68806C23.9012 1.49564 24.1786 1.55127 24.3836 1.90766C24.4764 2.07992 24.2855 2.12097 24.7235 2.3033C24.7884 2.33328 24.8359 2.33531 24.8774 2.32491C24.9486 2.29238 25.0019 2.21286 25.0976 2.22871C25.3022 2.2557 25.6379 2.47241 25.9057 2.72003C26.005 2.81276 26.1048 2.89892 26.2111 2.96446C26.3341 3.04036 26.2823 2.87355 26.3691 2.9228C26.5519 3.02608 26.6878 3.18161 26.8532 3.31219C26.9313 3.37473 26.992 3.42937 27.0514 3.47772C27.0768 3.49853 27.103 3.36431 27.181 3.44408C27.4817 3.76496 27.6209 3.98578 27.7967 4.18509C28.0094 4.4225 28.18 4.65471 28.3666 4.89687C28.459 5.01702 28.5909 5.17252 28.7212 5.33137C28.8553 5.49114 28.9992 5.6386 29.1139 5.79021C29.2652 5.9859 29.4422 6.29409 29.5516 6.57017C29.6546 6.85298 29.8174 7.1945 29.9806 7.43371C29.9924 7.45068 30.0032 7.4655 30.0141 7.47973C30.151 7.64074 30.2255 7.54555 30.3517 7.60013C30.5868 7.69656 30.6516 8.19835 30.641 8.35787C30.6406 8.37931 30.6395 8.39515 30.6386 8.40436C30.6385 8.40495 30.6289 8.39133 30.6143 8.37213C30.5682 8.31113 30.4734 8.20191 30.4911 8.32931C30.4589 8.39498 30.4869 8.41486 30.5272 8.41852C30.5742 8.42237 30.6375 8.40294 30.6386 8.40436C30.6395 8.45856 30.8704 8.9847 30.9133 9.00096C30.9424 9.02453 31.0335 8.94905 31.0451 8.95904C31.0608 8.97182 31.0727 8.97715 31.0787 8.97452C31.2917 9.2141 31.4139 9.52014 31.4762 9.67991C31.5432 9.85367 31.5889 9.98302 31.6369 10.1182C31.7439 10.4105 31.8701 10.7804 31.9608 11.1512C31.9626 11.1644 31.828 11.1859 31.8337 11.2165C31.8631 11.3807 31.9159 11.5152 31.9812 11.6378C32.0851 11.8317 32.2227 11.9929 32.3422 12.1963C32.4481 12.376 32.507 12.5499 32.5027 12.6668C32.498 12.7593 32.4646 12.8671 32.3899 12.9817C32.4742 13.1736 32.5247 13.4519 32.5289 13.8682C32.523 13.9179 32.5165 13.9624 32.5105 14.0018C32.4744 14.2303 32.747 14.2312 32.7549 14.2504C32.8442 14.4677 32.8839 14.6562 32.8987 14.8475C32.904 14.9223 32.9031 15.0007 32.9154 15.1731C32.9276 15.3427 32.9384 15.5894 32.9267 15.833C32.9253 15.8593 32.9241 15.8857 32.9231 15.9121C32.9105 16.2164 32.9475 16.8258 32.9073 17.2669C32.8949 17.4221 32.8618 17.5358 32.8423 17.6013C32.7899 17.8132 32.7405 17.9278 32.7118 18.0832C32.7044 18.1216 32.8352 18.1271 32.8359 18.14C32.8702 18.488 32.6349 18.2336 32.5623 18.2724C32.2998 18.399 32.1551 18.4696 32.1105 18.8157C32.1044 18.8634 32.2179 19.0218 32.3039 19.1688C32.3654 19.2548 32.417 19.3334 32.4111 19.378C32.3905 19.5271 32.2624 19.411 32.2392 19.5913C32.2361 19.6091 32.3334 19.6327 32.2842 19.7558C32.2153 19.9308 32.0925 20.2062 31.9308 20.4468C31.7644 20.6789 31.577 21.0068 31.4204 21.3522C31.3894 21.42 31.5739 21.404 31.5314 21.5033C31.5231 21.5229 31.5149 21.5421 31.5063 21.562C31.179 22.2458 30.8701 22.6365 30.5685 22.9901C30.568 22.9907 30.5674 22.9912 30.5669 22.9918C30.499 23.0627 30.4365 22.9503 30.3968 22.9508C30.1532 22.9557 30.2891 23.3142 30.2682 23.3597C30.0101 24.0036 29.3785 24.5457 28.9406 24.8406C28.6749 25.023 28.4353 25.2119 28.1517 25.5237C28.1312 25.5527 27.9324 26.1431 27.5218 26.0617C27.502 26.0577 27.2897 25.9977 27.1445 26.0725C27.142 26.0741 27.1377 26.0983 27.1469 26.1512C27.1475 26.1656 27.2737 26.2606 27.1795 26.3029C27.0714 26.3533 26.8746 26.6193 26.5148 26.6563C26.3916 26.6701 26.0801 26.5428 25.8049 26.9184C25.8012 26.9234 25.7842 26.9541 25.7528 26.9992C25.6971 27.1624 25.4457 27.5647 25.1925 27.3298C25.14 27.2788 25.0881 26.9139 24.7069 27.1912C24.6315 27.2427 24.7957 27.3034 24.5852 27.3906C24.4099 27.4614 24.2167 27.4675 24.0455 27.4868C23.9411 27.5012 23.8387 27.5314 23.7582 27.6207C23.7222 27.6554 23.6339 27.9334 23.5237 27.7558C23.5047 27.7282 23.5024 27.5957 23.4551 27.5923C23.3283 27.5853 23.2628 27.6197 23.0974 27.7001C23.0687 27.7142 22.9164 27.7998 22.7375 27.8654C22.5887 27.9206 22.5483 27.698 22.3733 27.7383C22.2879 27.7581 22.1644 27.8004 22.0397 27.8576C21.943 27.899 21.843 27.9676 21.7967 28.0525C21.7053 28.2175 22.0278 28.4207 21.8273 28.5689C21.5602 28.7563 21.3479 28.9147 20.8212 29.1284C20.5721 29.2212 20.1065 29.3876 19.5915 29.4274C19.5563 29.4116 19.2178 29.4661 18.9424 29.4926C18.6547 29.5223 18.37 29.5401 18.098 29.5563C17.9181 29.566 18.0749 29.6785 17.8113 29.6986C17.7821 29.7007 17.7518 29.7029 17.7205 29.7051C17.1994 29.7396 16.5953 29.7966 15.8844 29.765C15.3189 29.7311 14.8728 29.6574 14.5545 29.5232C13.9945 29.2833 14.7235 29.1559 14.2896 29.0486C14.0784 28.9972 13.8386 29.3974 13.7903 29.4093C13.7289 29.4243 13.6705 29.4346 13.6145 29.4414C13.1756 29.4865 12.8467 29.347 12.3911 29.3679C12.2812 29.3722 12.3768 29.545 12.2815 29.5464C12.1173 29.5473 11.9677 29.5288 11.7097 29.4736C11.5416 29.431 11.3844 29.3834 11.233 29.3593C11.1026 29.3387 11.0991 29.4679 10.9829 29.4327C10.7058 29.3493 10.4747 29.2389 10.2378 29.055C10.2164 29.0383 10.4194 28.9266 10.2197 28.8691C9.95953 28.7933 9.69174 28.6453 9.33184 28.5577C9.23263 28.5324 9.13921 28.5142 9.0462 28.506C8.91604 28.4951 8.79648 28.7642 8.63293 28.4776C8.59958 28.4173 8.80004 28.1219 8.40957 28.2838C8.34505 28.3118 7.72258 28.4817 7.62059 28.1371C7.61823 28.1291 7.61593 28.1192 7.61363 28.1078C7.59153 27.9918 7.56656 27.7174 7.4321 27.6958C7.41131 27.6934 7.41002 27.8698 7.29593 27.8293C7.0392 27.7359 6.78576 27.6025 6.54233 27.4741C6.4203 27.4108 6.29641 27.3499 6.16741 27.2966C6.0717 27.2574 6.12228 27.4753 5.98171 27.412C5.80382 27.331 5.60979 27.2262 5.35912 27.0566C5.35293 27.0365 4.97381 26.8118 4.72554 26.6091C4.54874 26.4656 4.75651 26.4421 4.75071 26.4204C4.68164 26.0793 4.37136 26.2423 4.28907 26.1993C4.2444 26.1757 4.20245 26.1505 4.16246 26.1237C3.83627 25.9178 3.72655 25.6435 3.4609 25.4377C3.38086 25.3748 3.32328 25.536 3.29912 25.5318C3.05313 25.4807 3.36164 25.3919 3.28855 25.2764C3.23873 25.1971 3.18286 25.1194 3.12185 25.0417C2.90726 24.7779 2.65595 24.4886 2.51507 24.3487C2.44797 24.2838 2.37841 24.4782 2.32439 24.4246C2.30149 24.4027 2.28134 24.3842 2.26239 24.3672C1.94566 24.0539 1.59126 23.7034 1.23537 23.1224C1.10523 22.8983 1.00918 22.6996 0.921053 22.4969C0.867731 22.3723 1.0312 22.3724 1.04402 22.332C1.13669 22.0548 0.734026 21.9695 0.674729 21.9242C0.577645 21.8521 0.523158 21.7852 0.476256 21.6985C0.526545 21.7838 0.444921 21.6336 0.381786 21.4866C0.314171 21.3315 0.254225 21.1574 0.197628 20.9819C-0.109458 19.8488 0.0185497 19.2929 0.0717444 18.6036C0.142841 18.025 0.186927 17.4692 0.271847 16.7896C0.279991 16.739 0.28771 16.6824 0.29496 16.6231C0.306586 16.5276 0.317841 16.424 0.329823 16.3149C0.36161 16.0495 0.377484 15.8018 0.470451 15.3634C0.576222 14.9897 0.64788 14.5344 0.824857 13.9032C0.913466 13.6631 0.978449 13.1877 0.996032 12.7081C0.999292 12.6267 0.810312 12.6989 0.810721 12.6291C0.813559 12.4309 0.819298 12.2304 0.826273 12.0268C0.848102 11.3537 0.85546 10.5922 0.87391 9.6744C0.878152 9.57018 0.696373 9.7143 0.699349 9.53818C0.699943 9.51211 0.700904 9.48549 0.702282 9.45827C0.71337 9.17263 0.771878 8.81713 0.876936 8.51919C0.931638 8.36471 1.03374 8.59926 1.08591 8.44502C1.16308 8.21836 1.24564 7.95596 1.27953 7.81719C1.30686 7.69783 1.33033 7.56398 1.37081 7.38229C1.4271 7.15154 1.15564 7.46547 1.25443 7.14343C1.33804 6.87118 1.54147 6.45377 1.80422 6.16419C2.02096 5.92625 2.09506 5.87434 2.21167 5.76876C2.31926 5.67503 2.42203 5.58989 2.52589 5.50662C2.73358 5.3406 2.94027 5.18574 3.17298 5.02785C3.55679 4.77053 3.94084 4.55532 4.25291 4.39201C4.60012 4.14876 4.80194 4.10421 4.93886 4.06182C5.0162 4.04132 5.21833 4.29525 5.30274 4.18388C5.26751 4.10449 5.21553 4.01666 5.17193 3.93503C5.32668 3.84818 5.46319 3.75584 5.61751 3.62928C6.09326 3.22383 6.51826 2.95225 6.90336 2.68798C7.21509 2.46566 7.73273 2.11578 8.1416 1.90851C8.39269 1.77463 8.63387 1.65959 8.76912 1.58565C9.15411 1.34562 9.42768 1.26182 9.6363 1.17194C9.69196 1.14923 9.53812 1.06519 9.6399 1.02354C9.69387 1.00143 9.73711 0.982379 9.76283 0.971542C10.2045 0.740203 10.8122 0.306574 11.73 0.222516C11.915 0.219536 12.0945 0.220746 12.2816 0.224087C12.3616 0.224975 12.3627 0.437286 12.5892 0.369099C12.5989 0.366151 12.6256 0.359204 12.6625 0.349297C12.8177 0.308279 13.063 0.258021 13.1348 0.218259C13.1476 0.210603 13.0616 0.124665 13.1879 0.11074C13.5523 0.0725671 13.9029 0.05498 14.2448 0.0367037C14.5964 0.0174068 14.9551 -0.000546932 15.3311 -0.000381768C15.4532 0.000192642 15.3344 0.0912657 15.4212 0.0921941C15.5405 0.0934464 15.6641 0.0920543 15.7951 0.0933381C16.2622 0.102321 16.7484 0.0777018 17.1924 0.134045C17.5611 0.180242 17.4307 0.298157 17.6298 0.411334C17.6576 0.426822 17.8851 0.428609 17.898 0.493159C17.9304 0.653742 17.8273 0.835688 17.8753 1.00706C17.8829 1.03498 18.0562 1.00663 18.0543 1.03851C18.0543 1.03852 18.0543 1.03853 18.0543 1.03853C18.0543 1.04781 18.0405 1.06193 18.0025 1.08474C17.9913 1.09076 17.7842 1.13786 17.7328 1.17496C17.6975 1.20033 17.7649 1.26008 17.692 1.2962C17.6198 1.33285 17.5359 1.28527 17.4143 1.33405C17.2924 1.38407 17.3509 1.45637 17.1046 1.50191ZM32.3283 14.9928C32.2236 15.1811 32.7037 15.1221 32.5626 14.9727C32.5555 14.9663 32.3337 14.9839 32.3283 14.9928ZM15.5693 0.541221C15.8315 0.677973 16.0116 0.470362 15.8259 0.363385C15.6395 0.257965 15.4891 0.500395 15.5693 0.541221ZM12.8437 0.928399C13.1644 0.955121 13.1177 0.533596 12.8147 0.698043C12.7973 0.707511 12.8247 0.92706 12.8437 0.928399ZM16.7353 0.467086C16.7383 0.470449 16.8998 0.468421 16.9035 0.464955C16.9852 0.381452 16.6616 0.382582 16.7353 0.467086ZM10.2457 1.52609C10.3455 1.56071 10.5948 1.43057 10.4649 1.39804C10.3931 1.38036 10.2587 1.43196 10.223 1.4738C10.1971 1.49322 10.1983 1.50978 10.2317 1.52004C10.2356 1.52221 10.2403 1.52424 10.2457 1.52609ZM27.586 24.2024C27.5784 24.1985 27.4854 24.2671 27.5162 24.2997C27.6144 24.4053 27.7114 24.2708 27.586 24.2024ZM6.34414 3.94467C6.35096 3.93909 6.35787 3.93357 6.36478 3.9282C6.90567 3.54574 7.38014 3.53887 6.77689 3.9363C6.66654 4.00995 6.9563 3.69826 6.80541 3.77785C6.65782 3.85632 6.57111 3.96729 6.4742 4.06998C6.40493 4.15536 6.33003 4.24822 6.19683 4.32226C6.14479 4.35116 6.30493 3.97007 6.34485 3.94358C6.34462 3.94394 6.34438 3.94431 6.34414 3.94467ZM31.771 15.1789C31.765 15.1839 31.7857 15.3425 31.7924 15.3453C31.958 15.4055 31.9169 15.0872 31.771 15.1789ZM21.3729 26.5987C21.3714 26.5977 21.3669 26.5984 21.3599 26.6005C21.2911 26.621 21.0205 26.7616 21.0181 26.7782C20.9994 27.0426 21.38 26.905 21.4385 26.7459C21.4559 26.6963 21.4403 26.6441 21.3729 26.5987ZM27.439 5.57368C27.2307 5.51712 27.1007 5.37608 27.1408 5.16791C27.2411 5.2991 27.344 5.43287 27.439 5.57368Z" fill="#52524F"/>
<path d="M18.7321 12.6312C18.8864 12.5756 19.0944 12.5506 19.2539 12.557C19.2787 12.5578 19.2839 12.5733 19.2868 12.5889C19.2891 12.6045 19.2895 12.6202 19.3045 12.6223C19.3637 12.6306 19.426 12.5903 19.4893 12.6034C19.5102 12.6082 19.4783 12.7053 19.5005 12.7088C19.624 12.7285 19.7476 12.6843 19.8787 12.6841C20.2216 12.6857 20.5631 12.6804 20.9347 12.6862C21.2586 12.6899 21.5898 12.7162 21.8466 12.7218C21.8507 12.7219 21.8549 12.7221 21.8591 12.7222C22.0592 12.7261 22.3267 12.8385 22.5571 12.7674C22.5841 12.7588 22.57 12.6294 22.5752 12.6183C22.6584 12.4477 22.6277 12.7134 22.68 12.7458C22.7941 12.8158 22.9163 12.8499 23.0432 12.8584C23.1475 12.8655 23.2491 12.8551 23.3431 12.8314C23.4308 12.8087 23.3591 12.5354 23.4373 12.6886C23.4426 12.699 23.4132 12.8452 23.4355 12.861C23.4868 12.8965 23.5849 12.8711 23.6218 12.8827C23.6934 12.9062 23.7052 12.9047 23.7686 12.9054C23.8537 12.9073 23.9471 12.9773 24.0113 12.9338C24.0241 12.9241 23.9937 12.7719 24.0096 12.7424C24.0146 12.7327 24.0228 12.7266 24.0315 12.724C23.9694 12.7266 23.8673 12.7751 23.839 12.8191C23.7962 12.8831 23.8876 12.9747 23.8929 13.0038C23.9739 13.2243 23.6892 13.0666 23.6636 13.0894C23.4575 13.2186 23.706 13.0392 23.6803 12.8376C23.678 12.8044 23.6725 12.7693 23.6652 12.7307C23.6453 12.754 23.6378 12.8221 23.6333 12.8023C23.6332 12.8021 23.6332 12.8018 23.6331 12.8016C23.6245 12.7858 23.6417 12.7928 23.5623 12.686C23.5339 12.6098 23.4572 12.4686 23.3558 12.3819C23.3404 12.3684 23.2234 12.5186 23.2047 12.5027C23.0298 12.3544 22.8723 12.1867 22.7585 11.9649C22.7519 11.9412 22.7449 11.9157 22.7375 11.8883C22.7315 11.8667 22.8545 11.7535 22.8533 11.7232C22.8554 11.5434 22.7815 11.1182 22.3762 11.7196C22.3119 11.6534 22.225 11.5807 22.1988 11.4136C22.1806 11.3057 22.2997 11.1602 22.203 11.2042C22.1817 11.2142 22.145 11.3684 22.1179 11.3726C22.006 11.3908 21.9173 11.307 21.8048 11.3588C21.7824 11.3698 21.75 11.5065 21.7384 11.5295C21.6892 11.6285 21.6751 11.5784 21.6734 11.5065C21.6959 11.4486 21.6968 11.3668 21.6952 11.3549C21.6415 11.1601 21.5135 11.2227 21.3943 11.2146C21.3651 11.2127 21.3953 11.4012 21.3679 11.406C21.2271 11.4291 21.0806 11.4157 20.9385 11.3431C20.9067 11.3266 20.9209 11.1661 20.9045 11.1502C20.887 11.1339 20.8742 11.1389 20.8645 11.155C20.8509 11.2045 20.8719 11.3643 20.8389 11.3201C20.829 11.3085 20.8047 11.175 20.8002 11.1607C20.7207 10.9381 20.769 11.2679 20.7659 11.2762C20.6966 11.3972 20.4975 11.1015 20.363 11.1925C20.3462 11.2039 20.4382 11.3551 20.3864 11.3773C20.3148 11.4079 20.2346 11.4347 20.1478 11.4547C20.3528 11.3594 20.0525 11.4883 19.8317 11.6027C19.7841 11.625 19.7117 11.5159 19.6979 11.5079C19.4816 11.3845 19.7056 11.6243 19.7042 11.6442C19.696 11.7141 19.6315 11.7337 19.5859 11.7647C19.5357 11.797 19.5123 11.8474 19.6461 12.014C19.2284 12.2986 19.2174 12.7034 18.6777 13.0909C18.6662 13.0887 18.656 13.0833 18.6434 13.081C18.6391 13.081 18.4999 13.0123 18.4907 13.0153C18.3727 13.0827 18.6107 13.1463 18.8829 13.2698C18.9516 13.2988 18.5904 13.3101 18.5637 13.315C18.4655 13.3251 18.2429 13.2659 18.2234 13.2715C18.0692 13.324 18.8204 13.4154 18.8076 13.5042C18.8059 13.5069 18.6697 13.4779 18.655 13.4837C18.6087 13.5023 18.6603 13.5329 18.6097 13.5516C18.5749 13.5638 18.5179 13.5708 18.4604 13.5777C18.3251 13.5945 18.1873 13.6078 18.3269 13.6875C18.3527 13.7025 18.7775 13.7402 18.7442 13.8275C18.7308 13.8608 18.7148 14.0162 18.6812 14.0556C18.6477 14.0944 18.5172 14.0471 18.5109 14.0493C18.3159 14.142 18.2486 14.0866 17.9773 14.1108C17.7077 14.1338 18.3348 14.2007 18.4012 14.2335C18.4671 14.2673 18.3091 14.3311 18.2555 14.3464C18.202 14.3603 18.1204 14.3236 18.0892 14.3382C17.8857 14.4371 18.3906 14.4325 18.4837 14.4851C18.7035 14.6088 18.2334 14.6256 18.178 14.7073C18.1629 14.7295 18.2696 14.7228 18.2766 14.7451C18.3029 14.8325 18.1545 14.866 18.2731 14.9757C18.2925 14.9941 18.5559 15.1001 18.3496 15.1273C18.32 15.1311 18.2093 15.0988 18.1799 15.1314C18.1357 15.1802 18.1006 15.2734 18.132 15.3344C18.1553 15.3792 18.3455 15.3498 18.2822 15.3966C18.254 15.4175 18.1506 15.3632 18.1068 15.4035C18.063 15.4438 18.0566 15.557 18.0563 15.6003C18.0561 15.6434 18.1976 15.6323 18.2067 15.6366C18.2584 15.6622 18.3175 15.749 18.3166 15.756C18.3008 16.071 18.1044 16.3556 18.1085 16.6571C18.1091 16.702 18.1133 16.747 18.1223 16.7922C18.1277 16.8204 18.2697 16.8016 18.272 16.8059C18.3299 16.9026 17.9542 16.8264 17.8282 16.8941C18.1152 16.8842 18.0629 16.9242 18.0938 16.9921C18.1089 17.0248 18.2196 17.0067 18.231 17.0097C18.3982 17.0578 18.181 17.092 18.1368 17.1009C17.974 17.1338 18.166 17.1676 18.0574 17.1902C17.9498 17.2128 17.7899 17.1632 17.7926 17.2289C17.894 17.2464 18.1592 17.1961 18.202 17.245C18.3618 17.4285 18.158 17.7727 18.1448 17.9221C18.1298 18.0697 18.151 18.1153 18.1214 18.2033C18.0694 18.3622 18.2533 18.2898 18.3461 18.3734C18.4392 18.4557 17.978 18.4628 17.8809 18.4875C17.7843 18.5125 17.8872 18.5163 17.8354 18.54C17.7838 18.564 17.7122 18.534 17.6975 18.578C17.6828 18.6229 17.8727 18.7118 17.9759 18.7097C18.1947 18.7064 18.4125 18.6251 18.3476 18.736C18.3439 18.7425 18.2233 18.7434 18.2148 18.7676C18.1522 18.9606 18.1858 19.1457 18.1617 19.3433C18.1584 19.3707 18.0282 19.3865 18.0251 19.4032C17.9951 19.58 18.1858 19.4609 18.4367 19.4553C18.1307 19.5457 17.9612 19.6572 18.0091 19.7758C18.038 19.8461 18.16 19.7799 18.2671 19.7822C18.299 19.7823 18.2349 19.8679 18.2972 19.8484C18.4996 19.783 18.6919 19.641 18.6544 19.7788C18.6526 19.7852 18.544 19.8245 18.5454 19.8428C18.5569 19.9626 18.7529 19.8665 18.8295 19.9447C18.8885 20.0051 18.872 20.2087 18.9254 20.3023C18.6668 20.5221 18.8032 20.5564 18.9952 20.4219C19.035 20.478 19.0958 20.5194 19.1243 20.5875C19.1344 20.611 19.0604 20.6734 19.0558 20.6832C18.9863 20.8379 19.153 20.688 19.1691 20.6905C19.3443 20.7278 19.3635 20.941 19.5816 20.888C19.5896 20.8861 19.7074 20.6989 19.6614 20.8599C19.6587 20.8711 19.5636 20.9321 19.624 20.9764C19.6384 20.9868 19.6531 21.0044 19.6697 21.0247C19.707 21.0833 19.7861 21.166 19.8742 21.1085C19.9056 21.0913 19.9825 20.9308 20.0072 21.0717C20.0108 21.0909 19.9963 21.1507 20.0013 21.1858C20.0207 21.2975 20.056 21.0851 20.0796 21.27C20.102 21.4549 20.2001 21.5932 20.314 21.4618C20.3183 21.4579 20.3349 21.2895 20.3685 21.2898C20.4238 21.2903 20.5044 21.3158 20.5629 21.3058C20.59 21.3012 20.5572 21.203 20.5616 21.2004C20.7292 21.1177 20.872 21.1784 21.0748 21.1589C21.1122 21.1551 21.1707 20.999 21.2695 21.0753C21.3801 21.1567 21.4612 21.6314 21.6008 21.4533C21.6598 21.3782 21.5223 20.805 21.7583 21.0305C21.9595 20.8617 22.2361 20.8854 22.4096 20.6696C22.4175 20.6598 22.3738 20.5116 22.3975 20.5007C22.4332 20.4842 22.4872 20.5333 22.5138 20.5227C22.6261 20.4797 22.687 20.3724 22.786 20.3181C22.8238 20.297 22.85 20.3627 22.8951 20.3365C22.9399 20.3099 22.9167 20.2169 22.9985 20.2115C23.0597 20.2082 23.2114 20.3201 23.2805 20.2907C23.1748 20.1494 23.2172 20.1214 23.2543 20.0323C23.2613 20.0152 23.2097 19.9792 23.2111 19.9687C23.2161 19.925 23.2704 19.945 23.2715 19.9005C23.2718 19.8898 23.2342 19.8449 23.2322 19.8337C23.2145 19.7408 23.3533 19.7819 23.3844 19.7903C23.3854 19.7905 23.3862 19.7907 23.387 19.7909C23.3996 19.7939 23.4082 19.797 23.4136 19.8004C23.4147 19.8016 23.4149 19.8031 23.4125 19.8093C23.4113 19.8127 23.4091 19.817 23.407 19.8278C23.3827 19.8447 23.4672 19.925 23.4747 19.9031C23.5046 19.8935 23.4846 19.8963 23.4871 19.8947C23.4769 19.894 23.4704 19.8984 23.4628 19.9054C23.4512 19.9173 23.4418 19.9356 23.4152 19.9334C23.3614 19.9299 23.3893 19.8605 23.3383 19.8712C23.2291 19.8968 23.1283 19.9813 23.0423 20.0398C23.0084 20.0633 23.0728 20.106 23.0689 20.1107C23.0088 20.1748 22.8952 20.1634 22.9358 20.3053C22.6812 20.0429 22.9133 20.3636 22.77 20.3731C22.7585 20.3738 22.6552 20.2429 22.6709 20.2015C22.6867 20.1598 22.7621 20.1706 22.7814 20.1085C22.7862 20.0942 22.7497 19.9205 22.7513 19.9065C22.7655 19.7979 22.9237 20.0047 22.9351 20.0143C23.0606 20.115 23.0281 19.9198 23.0381 19.896C23.088 19.7877 23.1804 19.7657 23.2277 19.6795C23.2456 19.6498 23.2286 19.5979 23.217 19.5471C23.2107 19.5222 23.2043 19.4984 23.2072 19.4764C23.2083 19.4656 23.2108 19.4559 23.2164 19.447C23.2206 19.4418 23.2284 19.4352 23.2392 19.4281C23.2449 19.4244 23.2516 19.4205 23.2609 19.4157C23.2884 19.4074 23.2191 19.4186 23.3874 19.3752C23.4321 19.371 23.5002 19.3487 23.6498 19.4044C23.8099 19.4482 23.9636 19.7151 23.9421 19.8442C23.9227 20.0502 23.9031 20.0152 23.8872 20.0633C23.8557 20.1206 23.8398 20.1356 23.8272 20.1513C23.7995 20.1825 23.8015 20.1781 23.7941 20.1853C23.7828 20.1952 23.7739 20.2018 23.7649 20.208C23.6359 20.274 23.4597 20.1466 23.4889 20.4026C23.4952 20.4615 23.6477 20.6058 23.4583 20.5525C23.4465 20.5496 23.2895 20.4824 23.3086 20.5903C23.311 20.604 23.3476 20.6541 23.3443 20.6635C23.3214 20.7256 23.2625 20.7088 23.2295 20.7647C23.196 20.8211 23.1577 20.8958 23.0906 20.9183C23.05 20.9324 22.9422 20.8614 22.9107 20.847C22.8208 20.8052 22.8453 20.9582 22.7633 20.8874C22.6809 20.8151 22.653 20.6444 22.5453 20.6304C22.6302 20.7798 22.7137 20.9356 22.797 21.0877C22.6272 21.1939 22.4326 21.2452 22.2611 21.3488C22.2398 21.3619 22.305 21.437 22.2831 21.4536C22.19 21.5235 22.0727 21.5058 21.9777 21.5845C21.9047 21.6456 21.8527 21.7891 21.7711 21.8564C21.6381 21.6782 21.5315 21.8031 21.4243 21.8223C21.3869 21.829 21.3711 21.7712 21.3405 21.7616C21.226 21.7258 21.3274 21.9 21.31 21.9394C21.2302 22.1093 21.0999 21.6764 20.9728 21.7231C20.9674 21.7249 20.9326 21.9879 20.9215 22.0067C20.8605 22.1256 20.8906 21.9263 20.8372 21.9207C20.7379 21.9098 20.6685 21.8634 20.565 21.9547C20.5369 21.9812 20.467 22.1508 20.3897 22.036C20.3798 22.021 20.3793 21.9367 20.3721 21.9325C20.2426 21.8612 20.2479 22.1249 20.1627 22.2188C20.075 22.3129 19.9485 22.1229 19.9305 22.0667C19.878 21.9235 19.988 22.0116 19.993 21.9975C20.0468 21.8383 19.9575 21.8626 19.8936 21.8414C19.9185 21.578 19.8361 21.5813 19.8257 21.8195C19.8253 21.8457 19.8818 21.8282 19.8936 21.8414C19.8028 22.0936 19.6523 22.1084 19.5973 21.8376C19.5744 21.7096 19.6681 21.6028 19.4977 21.5915C19.4184 21.582 19.367 21.7642 19.2708 21.7745C19.2699 21.7745 19.269 21.7746 19.2682 21.7747C19.095 21.8177 19.0347 21.5851 18.91 21.5386C18.8623 21.5205 18.8442 21.6334 18.8089 21.6237C18.7136 21.5971 18.6956 21.4889 18.5949 21.4655C18.5856 21.4634 18.5333 21.5634 18.5083 21.5469C18.3167 21.4214 18.2142 21.2364 18.0523 21.0618C17.9739 20.9789 17.7881 20.8561 17.7273 20.7491C17.6163 20.5635 17.6431 20.2656 17.5323 20.1338C17.459 20.0456 17.3592 20.115 17.2622 20.102C17.0715 20.0731 17.2765 19.8138 17.3135 19.7823C17.3146 19.7815 17.3759 19.8592 17.4167 19.7918C17.5297 19.722 17.3146 19.7834 17.3135 19.7823C17.3346 19.7593 17.2995 19.5765 17.2668 19.5483C17.2483 19.5329 17.1392 19.5755 17.1316 19.5666C16.953 19.3543 16.8608 19.1095 16.8709 18.8614C16.8725 18.8568 17.0068 18.8433 17.009 18.833C17.0438 18.6891 16.8668 18.6245 16.7514 18.5212C16.6364 18.4177 16.6574 18.324 16.8861 18.2419C16.847 18.1619 16.9405 18.0379 16.9994 17.9695C17.0582 17.9008 16.7865 17.9034 16.7805 17.8977C16.5935 17.7215 16.7419 17.6101 16.7568 17.4267C16.7642 17.3387 16.7159 17.168 16.6813 17.076C16.6533 17.0029 16.7173 16.9593 16.6724 16.8928C16.6664 16.8839 16.5414 16.893 16.5365 16.8903C16.3828 16.8161 16.6914 16.8518 16.7456 16.8365C16.9408 16.782 17.0467 16.7482 16.955 16.657C16.954 16.6558 16.9529 16.6547 16.9519 16.6536C16.9298 16.6309 16.4821 16.5531 16.4547 16.5059C16.4202 16.4454 16.581 16.4713 16.5414 16.4085C16.5381 16.4032 16.439 16.4016 16.443 16.3637C16.4602 16.1872 16.5213 16.0054 16.5168 15.8313C16.5165 15.8074 16.3561 15.8266 16.353 15.7917C16.3387 15.6283 16.3516 15.4534 16.4356 15.3074C16.4568 15.2715 16.5686 15.3061 16.6027 15.3012C16.8091 15.2712 16.5179 15.1717 16.5129 15.1592C16.3871 14.8651 16.6739 14.6859 16.5688 14.393C16.5627 14.3774 16.2482 14.2194 16.5312 14.2035C16.5499 14.2019 16.84 14.1884 16.6491 14.118C16.6372 14.1137 16.4872 14.1265 16.5073 14.0726C16.5274 14.0199 16.4369 13.9174 16.6066 13.8637C16.6599 13.8471 16.9528 13.8301 16.7311 13.7281C16.7159 13.7217 16.2066 13.5442 16.5687 13.5548C16.6283 13.5573 17.008 13.6122 16.8208 13.5082C16.7844 13.4879 16.697 13.5037 16.6475 13.4579C16.6089 13.4255 16.6173 13.3895 16.6122 13.3682C16.6099 13.323 16.5968 13.2751 16.5159 13.2177C16.4872 13.198 16.2334 13.0921 16.438 13.0569C16.47 13.0516 16.596 13.0879 16.614 13.058C16.7088 12.9066 16.6138 12.7509 16.8468 12.3643C16.9397 12.2254 17.0984 12.3837 17.2202 12.2719C17.2345 12.2596 17.2498 12.2462 17.265 12.233C17.3092 12.2505 17.3623 12.2189 17.3021 12.1472C17.234 12.0661 16.9153 11.9496 16.9185 11.8803C16.9448 11.5444 17.341 11.2343 17.5861 10.9417C17.6237 10.8959 17.4961 10.863 17.545 10.7902C17.642 10.6458 17.7594 10.4357 17.9096 10.2733C17.9988 10.1782 18.1208 10.093 18.2896 10.0851C18.5845 10.0703 18.5323 10.376 18.7008 10.3157C18.7796 10.289 18.5566 9.9329 18.5686 9.90263C18.6676 9.6333 18.9469 9.55817 19.4723 9.30565C19.589 9.25671 19.4192 9.13487 19.5287 9.09473C19.5618 9.0831 19.596 9.07286 19.6309 9.06404C19.6413 9.04849 19.684 9.09889 19.7212 9.07325C19.7397 9.06016 19.6983 8.93992 19.7219 8.94214C19.78 8.94541 19.8611 8.97328 19.9894 9.05721C20.0008 9.06499 19.9917 9.23464 20.063 9.21788C20.1835 9.19 20.3871 9.24879 20.6142 9.09693C20.6305 9.08604 20.6417 9.06122 20.652 9.03218C20.6656 8.94176 20.673 8.80713 20.7545 8.95398C20.777 8.99444 20.7795 9.34686 20.8584 9.03557C20.8691 8.98369 21.0267 8.56181 21.1197 8.82401C21.1443 8.89282 21.2035 9.17982 21.2491 9.13374C21.2555 9.12639 21.2285 8.96891 21.268 8.95286C21.4088 8.89932 21.5557 8.91789 21.7195 8.87783C21.7645 8.86702 21.7096 8.6993 21.7781 8.68869C21.911 8.67253 22.0384 8.68442 22.3135 8.76797C22.3941 8.79897 22.4548 8.83186 22.5092 8.86491C22.5673 8.90095 22.4857 9.01975 22.4866 9.03538C22.4885 9.28632 22.6211 8.9865 22.6508 8.97561C22.8301 8.91166 22.8874 9.09348 23.0282 9.10333C23.0676 9.10679 23.0992 8.9523 23.1113 8.94209C23.2368 8.84518 23.0775 9.0832 23.1124 9.13001C23.2092 9.26217 23.3534 9.31182 23.4937 9.35859C23.5451 9.37558 23.5718 9.18697 23.6182 9.20482C23.896 9.30857 24.1772 9.49729 24.3793 9.78361C24.4169 9.83779 24.2981 9.9219 24.2883 9.95481C24.2334 10.1246 24.3803 10.0808 24.4811 10.054C24.5094 10.0399 24.5326 10.0275 24.5411 10.0253C24.6953 9.98562 24.6376 10.1001 24.7103 10.1354C25.0496 10.3073 25.2621 10.5837 25.5593 10.994C25.5081 10.9425 25.5498 10.9962 25.578 11.034C25.6154 11.0835 25.6626 11.1474 25.7081 11.2163C25.952 11.5702 26.131 12.1005 26.1211 12.5679C26.0875 12.7911 26.0878 13.0577 26.0292 13.5242C26.0203 13.583 26.2131 13.5539 26.2067 13.6083C26.1691 13.8449 26.105 14.1521 25.8212 14.5577C25.5592 14.9694 24.8804 15.3743 24.3819 15.4026C24.1952 15.4196 24.0299 15.4234 23.8867 15.4342C23.8515 15.4364 23.9033 15.6084 23.8459 15.6172C23.728 15.6363 23.6004 15.613 23.5142 15.5481C23.4721 15.5168 23.5366 15.3811 23.4948 15.3527C23.3984 15.2866 23.3049 15.2613 23.2182 15.2745C23.1815 15.2804 23.2269 15.4569 23.1803 15.4511C23.1013 15.442 23.0273 15.4338 22.9553 15.4228C22.7422 15.3907 22.4868 15.3272 22.2278 15.137C22.2038 15.1193 22.1876 14.8022 22.1351 14.856C22.1297 14.9423 22.1282 15.0443 22.1249 15.1368C22.0079 15.1301 21.8895 15.114 21.7599 15.0898C21.3693 15.021 21.1097 14.8928 20.8259 14.8041C20.7612 14.7822 20.6918 14.7616 20.621 14.7426C20.601 14.7372 20.6303 14.8828 20.5918 14.8724C20.3679 14.8138 20.1383 14.7847 19.8987 14.6019C19.8749 14.584 19.8946 14.3775 19.8221 14.3938C19.8094 14.3969 19.7003 14.4 19.6704 14.4362C19.6662 14.4417 19.6824 14.5403 19.647 14.5336C19.4831 14.5011 19.3129 14.441 19.134 14.3571C19.0924 14.3359 19.0527 14.3137 19.0121 14.2904C18.9805 14.272 19.0226 14.1995 19.0004 14.1861C18.8407 14.0951 18.6537 14.0948 18.5004 13.9736C18.3984 13.8943 18.4564 13.7899 18.4191 13.6614C18.4136 13.6435 18.3508 13.6243 18.3586 13.5603C18.3774 13.3999 18.4381 13.2281 18.4546 13.056C18.4578 13.0276 18.4011 13.0444 18.4058 13.0134C18.4058 13.0134 18.4058 13.0134 18.4058 13.0134C18.4073 13.0043 18.4144 12.991 18.4302 12.9709C18.4358 12.9652 18.5038 12.9337 18.5229 12.9014C18.5367 12.8792 18.5295 12.8151 18.5545 12.7853C18.5794 12.7548 18.5923 12.8084 18.6304 12.7705C18.6685 12.7315 18.6653 12.6551 18.7321 12.6312ZM17.2679 17.6667C17.3968 17.6046 16.9139 17.6077 17.033 17.6694C17.0393 17.6724 17.2617 17.67 17.2679 17.6667ZM22.3213 21.0305C22.1893 20.9436 22.2361 21.1533 22.3342 21.2232C22.433 21.2911 22.3619 21.0559 22.3213 21.0305ZM22.9495 20.5194C22.8196 20.4842 23.0376 20.8449 23.0713 20.7153C23.0734 20.7078 22.9571 20.5212 22.9495 20.5194ZM18.6817 13.6868C18.6815 13.6832 18.6355 13.6704 18.6337 13.6735C18.5983 13.7485 18.6911 13.7771 18.6817 13.6868ZM23.5047 19.9501C23.4503 19.9299 23.4298 20.0285 23.4985 20.0544C23.5545 20.0743 23.5733 19.9741 23.5047 19.9501ZM17.9206 14.6783C17.9285 14.6783 17.9396 14.6465 17.8951 14.6417C17.7518 14.6263 17.7868 14.6772 17.9206 14.6783ZM22.3893 20.4701C22.5467 20.3881 22.8077 20.5472 22.6029 20.6365C22.5666 20.6521 22.6289 20.5192 22.5737 20.5242C22.5224 20.5298 22.5097 20.5745 22.4854 20.6164C22.4744 20.6365 22.463 20.6559 22.4319 20.6706C22.4227 20.6743 22.4202 20.6764 22.3959 20.6807C22.3846 20.682 22.3717 20.6839 22.3478 20.6792C22.299 20.6868 22.2338 20.5673 22.2517 20.553C22.274 20.4681 22.2886 20.4918 22.3086 20.4767C22.3268 20.4688 22.3199 20.5373 22.3703 20.5636C22.3835 20.5208 22.3829 20.4718 22.3894 20.4697C22.3894 20.4698 22.3894 20.47 22.3893 20.4701ZM17.8451 17.6177C17.8514 17.6164 17.8564 17.5706 17.85 17.5697C17.696 17.5483 17.6866 17.6415 17.8451 17.6177ZM18.5561 12.9308C18.5718 12.9357 18.6393 12.8428 18.6275 12.8337C18.398 12.6504 18.27 12.8235 18.5561 12.9308ZM18.9197 20.3095C19.0485 20.2555 19.0896 20.2799 18.9951 20.4216C18.9713 20.3835 18.942 20.3487 18.9197 20.3095Z" fill="#52524F"/>
</svg>
