<svg width="13" height="2" viewBox="0 0 13 2" fill="none" xmlns="http://www.w3.org/2000/svg">
<path d="M-0.000185053 0.921458C-0.000185042 0.667153 0.0903721 0.449999 0.271483 0.269999C0.452594 0.0899993 0.670301 -5.00274e-07 0.924607 -4.89158e-07C1.17891 -4.78042e-07 1.39697 0.0905553 1.57877 0.271666C1.76044 0.452778 1.85127 0.670485 1.85127 0.924791C1.85127 1.1791 1.76016 1.39625 1.57794 1.57625C1.39586 1.75625 1.17683 1.84625 0.920857 1.84625C0.666552 1.84625 0.449469 1.75569 0.269607 1.57458C0.0897455 1.39347 -0.000185064 1.17576 -0.000185053 0.921458ZM5.1344 0.921458C5.1344 0.667153 5.22496 0.45 5.40607 0.27C5.58718 0.0899995 5.80489 -2.75834e-07 6.05919 -2.64718e-07C6.3135 -2.53602e-07 6.53065 0.0905555 6.71065 0.271667C6.89065 0.452778 6.98065 0.670486 6.98065 0.924791C6.98065 1.1791 6.89009 1.39625 6.70898 1.57625C6.52787 1.75625 6.31016 1.84625 6.05586 1.84625C5.80155 1.84625 5.5844 1.75569 5.4044 1.57458C5.2244 1.39347 5.1344 1.17576 5.1344 0.921458ZM10.2638 0.921459C10.2638 0.667153 10.3549 0.45 10.5371 0.27C10.7192 0.0899998 10.9382 -5.14489e-08 11.1942 -4.026e-08C11.4485 -2.9144e-08 11.6656 0.0905557 11.8454 0.271667C12.0253 0.452778 12.1152 0.670486 12.1152 0.924791C12.1152 1.1791 12.0247 1.39625 11.8436 1.57625C11.6625 1.75625 11.4447 1.84625 11.1904 1.84625C10.9361 1.84625 10.7181 1.75569 10.5363 1.57458C10.3546 1.39347 10.2638 1.17576 10.2638 0.921459Z" fill="#333333"/>
</svg>
