<svg width="16" height="16" viewBox="0 0 16 16" fill="none" xmlns="http://www.w3.org/2000/svg">
<path fill-rule="evenodd" clip-rule="evenodd" d="M11.8258 12.7026V12.7014L11.8366 12.6756L13.636 3.60357V3.57477C13.636 3.34857 13.552 3.15117 13.3708 3.03297C13.2118 2.92917 13.0288 2.92197 12.9004 2.93157C12.7809 2.94248 12.663 2.96663 12.5488 3.00357C12.5001 3.01912 12.452 3.03674 12.4048 3.05637L12.397 3.05937L2.36499 6.99477L2.36199 6.99597C2.33126 7.00575 2.30136 7.01799 2.27259 7.03257C2.20129 7.06471 2.13284 7.10284 2.06799 7.14657C1.93899 7.23537 1.69359 7.44417 1.73499 7.77537C1.76919 8.05017 1.95819 8.22417 2.08599 8.31477C2.16126 8.36791 2.24239 8.4122 2.32779 8.44677L2.34699 8.45517L2.35299 8.45697L2.35719 8.45877L4.11279 9.04977C4.10639 9.16017 4.11779 9.27117 4.14699 9.38277L5.02599 12.7182C5.07401 12.9 5.17777 13.0622 5.32271 13.182C5.46764 13.3018 5.64646 13.3732 5.83406 13.3862C6.02166 13.3992 6.20861 13.3531 6.36865 13.2543C6.5287 13.1556 6.6538 13.0092 6.72639 12.8358L8.09919 11.3682L10.4566 13.1754L10.4902 13.1898C10.7044 13.2834 10.9042 13.3128 11.0872 13.2882C11.2702 13.263 11.4154 13.1862 11.5246 13.0992C11.6509 12.9968 11.7516 12.8663 11.8186 12.7182L11.8234 12.708L11.8252 12.7044L11.8258 12.7026ZM5.01699 9.15357C5.00726 9.11657 5.00957 9.07742 5.0236 9.04181C5.03762 9.00621 5.06263 8.976 5.09499 8.95557L11.0476 5.17557C11.0476 5.17557 11.398 4.96257 11.3854 5.17557C11.3854 5.17557 11.4478 5.21277 11.26 5.38737C11.0824 5.55357 7.01739 9.47817 6.60579 9.87537C6.58345 9.89801 6.56751 9.92617 6.55959 9.95697L5.89599 12.489L5.01699 9.15357Z" fill="#333333"/>
</svg>
