<svg width="14" height="14" viewBox="0 0 14 14" fill="none" xmlns="http://www.w3.org/2000/svg">
<path d="M6.9375 9.44434C8.38524 9.44434 9.71706 9.80195 10.7012 10.4033C11.6778 11.0001 12.375 11.8836 12.375 12.9375H11.5C11.5 12.3039 11.078 11.6594 10.2451 11.1504C9.4196 10.6459 8.25113 10.3193 6.9375 10.3193C5.62387 10.3193 4.4554 10.6459 3.62988 11.1504C2.79701 11.6594 2.375 12.3039 2.375 12.9375H1.5C1.5 11.8836 2.19721 11.0001 3.17383 10.4033C4.15794 9.80195 5.48976 9.44434 6.9375 9.44434ZM6.9375 1.5C8.89569 1.5 10.5 3.05479 10.5 4.99316C10.4999 6.93149 8.89566 8.48633 6.9375 8.48633C4.97934 8.48633 3.37506 6.93149 3.375 4.99316C3.375 3.05479 4.97931 1.5 6.9375 1.5ZM6.9375 2.375C5.44391 2.375 4.25 3.55647 4.25 4.99316C4.25006 6.42981 5.44395 7.61133 6.9375 7.61133C8.43105 7.61133 9.62494 6.42981 9.625 4.99316C9.625 3.55647 8.43109 2.375 6.9375 2.375Z" fill="#333333"/>
</svg>
