<svg width="16" height="16" viewBox="0 0 16 16" fill="none" xmlns="http://www.w3.org/2000/svg">
<path d="M13.5655 11.357H12.1963C11.6785 11.357 11.5225 10.9376 10.5943 10.0088C9.78311 9.22699 9.44051 9.12979 9.23531 9.12979C8.95151 9.12979 8.87411 9.20779 8.87411 9.59839V10.8296C8.87411 11.1626 8.76611 11.3576 7.89611 11.3576C7.05209 11.3009 6.23361 11.0445 5.50809 10.6095C4.78258 10.1745 4.17079 9.57335 3.72311 8.85559C2.66052 7.53236 1.92096 5.97969 1.56311 4.32079C1.56311 4.11559 1.64111 3.92959 2.03231 3.92959H3.40031C3.75191 3.92959 3.87851 4.08619 4.01651 4.44799C4.68071 6.40279 5.81411 8.10319 6.27431 8.10319C6.45071 8.10319 6.52751 8.02519 6.52751 7.58539V5.57179C6.46931 4.65319 5.98151 4.57579 5.98151 4.24339C5.98768 4.15569 6.0278 4.07386 6.09333 4.01526C6.15887 3.95667 6.24467 3.92593 6.33251 3.92959H8.48291C8.77691 3.92959 8.87411 4.07599 8.87411 4.42759V7.14559C8.87411 7.43899 9.00011 7.53619 9.08891 7.53619C9.26531 7.53619 9.40091 7.43899 9.72431 7.11619C10.4172 6.27058 10.9836 5.32873 11.4055 4.32019C11.4485 4.19896 11.53 4.09518 11.6377 4.02474C11.7453 3.9543 11.873 3.92108 12.0013 3.93019H13.3699C13.7803 3.93019 13.8673 4.13539 13.7803 4.42819C13.2824 5.54316 12.6665 6.6016 11.9431 7.58539C11.7955 7.81039 11.7367 7.92739 11.9431 8.19139C12.0787 8.39659 12.5587 8.79739 12.8809 9.17839C13.3501 9.64639 13.7395 10.1876 14.0341 10.7804C14.1517 11.162 13.9561 11.357 13.5655 11.357Z" fill="#333333"/>
</svg>
